<svg xmlns="http://www.w3.org/2000/svg" viewBox="0 0 156.01 55.73"><defs><style>.cls-1{fill:#262424;}</style></defs><title>Asset 1</title><g id="Layer_2" data-name="Layer 2"><g id="Ebene_1" data-name="Ebene 1"><path class="cls-1" d="M28.84,52.9,29,55.73h.24l-.12-2.83Z"/><path class="cls-1" d="M26.89,2.83,26.77,0h-.24l.12,2.83Z"/><path class="cls-1" d="M27.32,12.73l-.19-4.25H26.9l.19,4.25Z"/><path class="cls-1" d="M28.41,43l.19,4.25h.24L28.65,43Z"/><path class="cls-1" d="M27.52,17.22l-.07-1.67h-.24l.07,1.67Z"/><path class="cls-1" d="M28.21,38.51l.07,1.67h.24l-.07-1.67Z"/><path class="cls-1" d="M52.9,26.89l2.83-.12c0-.08,0-.16,0-.24l-2.83.12C52.9,26.73,52.9,26.81,52.9,26.89Z"/><path class="cls-1" d="M2.83,28.84,0,29c0,.08,0,.16,0,.24l2.83-.12C2.83,29,2.83,28.92,2.83,28.84Z"/><path class="cls-1" d="M12.73,28.41l-4.25.19c0,.08,0,.16,0,.24l4.25-.19C12.74,28.57,12.74,28.49,12.73,28.41Z"/><path class="cls-1" d="M43,27.33l4.24-.18c0-.08,0-.16,0-.24L43,27.09C43,27.17,43,27.25,43,27.33Z"/><path class="cls-1" d="M38.52,27.52l1.67-.07c0-.08,0-.16,0-.24l-1.67.07C38.51,27.36,38.51,27.44,38.52,27.52Z"/><path class="cls-1" d="M17.22,28.21l-1.67.07c0,.08,0,.16,0,.24l1.67-.07C17.23,28.37,17.22,28.29,17.22,28.21Z"/><path class="cls-1" d="M10.86,46.25,8.95,48.34l.17.16L11,46.42Z"/><path class="cls-1" d="M44.87,9.48l1.91-2.09-.17-.16L44.7,9.32Z"/><path class="cls-1" d="M38.18,16.79l2.87-3.13-.17-.16L38,16.63Z"/><path class="cls-1" d="M17.55,38.94l-2.87,3.13.17.16,2.87-3.14Z"/><path class="cls-1" d="M35.15,20.1l1.13-1.23-.18-.16L35,19.94Z"/><path class="cls-1" d="M20.58,35.64l-1.13,1.23.18.16,1.13-1.23Z"/><path class="cls-1" d="M46.25,44.88l2.09,1.91.16-.17L46.42,44.7Z"/><path class="cls-1" d="M9.48,10.86,7.39,8.95l-.16.17L9.32,11Z"/><path class="cls-1" d="M38.95,38.18l3.13,2.87.16-.17L39.11,38Z"/><path class="cls-1" d="M16.79,17.55l-3.13-2.87-.16.17,3.13,2.87Z"/><path class="cls-1" d="M35.64,35.15l1.23,1.13L37,36.1,35.8,35Z"/><path class="cls-1" d="M20.1,20.59l-1.23-1.13-.16.18,1.23,1.13Z"/><path class="cls-1" d="M25.8,2.9,25.55.08l-.24,0,.25,2.82Z"/><path class="cls-1" d="M29.93,52.84l.25,2.82.24,0-.25-2.82Z"/><path class="cls-1" d="M26.67,12.77l-.37-4.23-.24,0,.37,4.23Z"/><path class="cls-1" d="M29.07,43l.37,4.23.24,0-.37-4.23Z"/><path class="cls-1" d="M28.68,38.49l.15,1.67h.24l-.15-1.67Z"/><path class="cls-1" d="M27.06,17.24l-.15-1.67h-.24l.15,1.67Z"/><path class="cls-1" d="M2.9,29.93l-2.82.25c0,.08,0,.16,0,.24l2.82-.25C2.91,30.09,2.91,30,2.9,29.93Z"/><path class="cls-1" d="M52.84,25.8l2.82-.25c0-.08,0-.16,0-.24l-2.82.25C52.82,25.64,52.83,25.72,52.84,25.8Z"/><path class="cls-1" d="M12.77,29.07l-4.23.37c0,.08,0,.16,0,.24l4.23-.37C12.78,29.23,12.78,29.15,12.77,29.07Z"/><path class="cls-1" d="M43,26.67l4.23-.37c0-.08,0-.16,0-.24l-4.23.37C43,26.51,43,26.59,43,26.67Z"/><path class="cls-1" d="M38.49,27.06l1.67-.15c0-.08,0-.16,0-.24l-1.67.15C38.49,26.9,38.49,27,38.49,27.06Z"/><path class="cls-1" d="M17.24,28.68l-1.67.15c0,.08,0,.16,0,.24l1.67-.15C17.25,28.84,17.25,28.76,17.24,28.68Z"/><path class="cls-1" d="M11.68,47,9.86,49.14l.18.16,1.82-2.17Z"/><path class="cls-1" d="M44.05,8.76l1.82-2.17-.18-.16L43.88,8.6Z"/><path class="cls-1" d="M37.69,16.35l2.73-3.25-.18-.16-2.73,3.25Z"/><path class="cls-1" d="M18,39.38l-2.73,3.26.18.16,2.73-3.26Z"/><path class="cls-1" d="M34.8,19.78l1.08-1.28-.18-.16-1.08,1.28Z"/><path class="cls-1" d="M20.93,35.95l-1.08,1.28.18.16,1.08-1.28Z"/><path class="cls-1" d="M8.76,11.68,6.59,9.86,6.43,10,8.6,11.86Z"/><path class="cls-1" d="M47,44.06l2.17,1.82.16-.18-2.17-1.82Z"/><path class="cls-1" d="M16.35,18,13.1,15.32l-.16.18,3.25,2.73Z"/><path class="cls-1" d="M39.38,37.69l3.25,2.73.16-.18-3.25-2.73Z"/><path class="cls-1" d="M19.78,20.93,18.5,19.85l-.16.18,1.28,1.08Z"/><path class="cls-1" d="M35.95,34.81l1.28,1.07.16-.18-1.28-1.08Z"/><path class="cls-1" d="M31,52.72l.37,2.81.24,0-.37-2.81Z"/><path class="cls-1" d="M24.71,3,24.34.2l-.24,0L24.48,3Z"/><path class="cls-1" d="M26,12.84l-.55-4.21-.24,0,.55,4.21Z"/><path class="cls-1" d="M29.72,42.9l.55,4.21.24,0L30,42.87Z"/><path class="cls-1" d="M29.14,38.45l.22,1.66.24,0-.22-1.66Z"/><path class="cls-1" d="M26.59,17.29l-.22-1.66-.24,0,.22,1.66Z"/><path class="cls-1" d="M52.72,24.71l2.81-.37,0-.24-2.81.37Z"/><path class="cls-1" d="M3,31,.2,31.39l0,.24L3,31.26Z"/><path class="cls-1" d="M42.89,26l4.21-.56c0-.08,0-.16,0-.24l-4.21.55Z"/><path class="cls-1" d="M12.84,29.72l-4.21.56,0,.24L12.87,30Z"/><path class="cls-1" d="M17.29,29.14l-1.66.22c0,.08,0,.16,0,.24l1.66-.22C17.31,29.3,17.3,29.22,17.29,29.14Z"/><path class="cls-1" d="M38.45,26.59l1.66-.22c0-.08,0-.16,0-.24l-1.66.22C38.42,26.44,38.44,26.51,38.45,26.59Z"/><path class="cls-1" d="M43.21,8.07l1.72-2.25-.19-.15L43,7.92Z"/><path class="cls-1" d="M12.53,47.66,10.8,49.91l.19.15,1.72-2.25Z"/><path class="cls-1" d="M37.17,15.93l2.59-3.37-.19-.15L37,15.78Z"/><path class="cls-1" d="M18.56,39.8,16,43.17l.19.15,2.59-3.37Z"/><path class="cls-1" d="M21.29,36.24l-1,1.33.19.14,1-1.33Z"/><path class="cls-1" d="M34.45,19.49l1-1.33L35.27,18l-1,1.33Z"/><path class="cls-1" d="M47.66,43.21l2.25,1.72.15-.19L47.81,43Z"/><path class="cls-1" d="M8.07,12.53,5.82,10.8,5.68,11l2.25,1.72Z"/><path class="cls-1" d="M39.8,37.17l3.37,2.59.15-.19L39.95,37Z"/><path class="cls-1" d="M15.93,18.56,12.56,16l-.15.19,3.37,2.59Z"/><path class="cls-1" d="M36.24,34.45l1.33,1,.14-.19-1.33-1Z"/><path class="cls-1" d="M19.49,21.29l-1.33-1-.14.19,1.33,1Z"/><path class="cls-1" d="M23.63,3.17,23.14.38l-.23,0,.49,2.79Z"/><path class="cls-1" d="M32.1,52.56l.49,2.79.23,0-.49-2.79Z"/><path class="cls-1" d="M25.35,12.93l-.74-4.18-.23,0L25.12,13Z"/><path class="cls-1" d="M30.38,42.8,31.12,47l.23,0-.74-4.19Z"/><path class="cls-1" d="M29.6,38.38,29.89,40l.24,0-.29-1.65Z"/><path class="cls-1" d="M26.13,17.36l-.29-1.65-.24,0,.29,1.65Z"/><path class="cls-1" d="M3.17,32.1l-2.79.49,0,.23,2.79-.49Z"/><path class="cls-1" d="M52.56,23.63l2.79-.49,0-.23-2.79.49Z"/><path class="cls-1" d="M42.8,25.35,47,24.62l0-.24-4.18.74Z"/><path class="cls-1" d="M12.93,30.38l-4.18.74,0,.23L13,30.61Z"/><path class="cls-1" d="M38.38,26.13,40,25.84c0-.08,0-.16,0-.24l-1.65.29C38.36,26,38.37,26.06,38.38,26.13Z"/><path class="cls-1" d="M17.36,29.6l-1.65.29c0,.08,0,.16,0,.24l1.65-.29C17.38,29.76,17.37,29.68,17.36,29.6Z"/><path class="cls-1" d="M16.84,43.82l-.19-.14"/><path class="cls-1" d="M13.4,48.31l.19.14"/><path class="cls-1" d="M42.33,7.42,44,5.1,43.76,5,42.13,7.28Z"/><path class="cls-1" d="M13.4,48.31l-1.62,2.32.19.14,1.62-2.32Z"/><path class="cls-1" d="M19.09,40.2l-2.44,3.48.19.14,2.44-3.48Z"/><path class="cls-1" d="M36.65,15.54l2.44-3.48-.19-.14L36.45,15.4Z"/><path class="cls-1" d="M34.07,19.21l1-1.37-.19-.14-1,1.37Z"/><path class="cls-1" d="M21.66,36.52l-1,1.37.19.14,1-1.37Z"/><path class="cls-1" d="M7.42,13.4,5.1,11.78,5,12,7.28,13.6Z"/><path class="cls-1" d="M48.31,42.33,50.63,44l.14-.19-2.32-1.62Z"/><path class="cls-1" d="M40.2,36.65l3.48,2.44.14-.19-3.48-2.44Z"/><path class="cls-1" d="M15.54,19.09l-3.48-2.44-.14.2,3.48,2.44Z"/><path class="cls-1" d="M19.21,21.66l-1.37-1-.14.19,1.37,1Z"/><path class="cls-1" d="M36.52,34.07l1.37,1,.14-.19-1.37-1Z"/><path class="cls-1" d="M22.56,3.38,21.95.61l-.23.05.61,2.77Z"/><path class="cls-1" d="M33.17,52.36l.61,2.77.23-.05-.61-2.77Z"/><path class="cls-1" d="M31,42.68l.92,4.15.23-.05-.92-4.15Z"/><path class="cls-1" d="M24.7,13.06l-.92-4.15L23.55,9l.92,4.15Z"/><path class="cls-1" d="M30.06,38.3l.36,1.63.23-.06-.36-1.63Z"/><path class="cls-1" d="M25.67,17.43l-.36-1.63-.23.06.36,1.63Z"/><path class="cls-1" d="M3.38,33.17l-2.77.61L.67,34l2.77-.61Z"/><path class="cls-1" d="M52.36,22.56l2.77-.62-.05-.23-2.77.61Z"/><path class="cls-1" d="M13.06,31l-4.15.92.05.23,4.15-.92Z"/><path class="cls-1" d="M42.68,24.71l4.15-.92-.05-.23-4.15.92Z"/><path class="cls-1" d="M38.3,25.68l1.63-.36c0-.08,0-.15-.06-.23l-1.63.36C38.26,25.52,38.29,25.6,38.3,25.68Z"/><path class="cls-1" d="M17.43,30.06l-1.63.36c0,.08,0,.15.06.23l1.63-.36C17.47,30.21,17.45,30.14,17.43,30.06Z"/><path class="cls-1" d="M17.55,44.28l-.2-.13"/><path class="cls-1" d="M14.31,48.93l.2.13"/><path class="cls-1" d="M14.31,48.93l-1.52,2.39.2.13,1.52-2.39Z"/><path class="cls-1" d="M41.42,6.81l1.52-2.39-.2-.13L41.22,6.68Z"/><path class="cls-1" d="M36.1,15.16l2.28-3.58-.2-.13L35.9,15Z"/><path class="cls-1" d="M19.63,40.57l-2.28,3.58.2.13,2.28-3.58Z"/><path class="cls-1" d="M22,36.79l-.9,1.41.2.12.9-1.41Z"/><path class="cls-1" d="M33.69,18.94l.9-1.41-.2-.12-.9,1.41Z"/><path class="cls-1" d="M6.81,14.31,4.42,12.79l-.13.2,2.39,1.52Z"/><path class="cls-1" d="M48.93,41.43l2.39,1.52.13-.2-2.39-1.52Z"/><path class="cls-1" d="M15.16,19.63l-3.58-2.28-.13.2L15,19.83Z"/><path class="cls-1" d="M40.57,36.1l3.58,2.28.13-.2L40.7,35.9Z"/><path class="cls-1" d="M18.94,22l-1.41-.9-.12.2,1.41.9Z"/><path class="cls-1" d="M36.79,33.69l1.41.9.13-.2-1.41-.9Z"/><path class="cls-1" d="M34.24,52.11,35,54.84l.23-.06L34.47,52Z"/><path class="cls-1" d="M21.5,3.63,20.76.89,20.53,1l.73,2.74Z"/><path class="cls-1" d="M31.67,42.53l1.1,4.11.23-.06-1.1-4.11Z"/><path class="cls-1" d="M24.06,13.21,23,9.1l-.23.07,1.1,4.11Z"/><path class="cls-1" d="M30.51,38.19l.43,1.62.23-.06-.43-1.62Z"/><path class="cls-1" d="M25.22,17.55l-.43-1.62-.23.06L25,17.61Z"/><path class="cls-1" d="M3.63,34.24.89,35,1,35.2l2.74-.73Z"/><path class="cls-1" d="M52.1,21.5l2.74-.73-.06-.23L52,21.27Z"/><path class="cls-1" d="M13.21,31.67,9.1,32.77l.07.23,4.11-1.1Z"/><path class="cls-1" d="M42.53,24.06,46.63,23l-.07-.23-4.11,1.1Z"/><path class="cls-1" d="M17.55,30.51l-1.62.43.06.23,1.62-.43Z"/><path class="cls-1" d="M38.19,25.22l1.62-.43-.06-.23L38.13,25Z"/><path class="cls-1" d="M18.28,44.72l-.21-.12"/><path class="cls-1" d="M15.24,49.5l.21.12"/><path class="cls-1" d="M15.24,49.5,13.82,52l.21.12,1.42-2.45Z"/><path class="cls-1" d="M40.49,6.23l1.42-2.45-.21-.12L40.29,6.11Z"/><path class="cls-1" d="M35.54,14.81l2.12-3.68L37.46,11,35.33,14.7Z"/><path class="cls-1" d="M20.19,40.92,18.07,44.6l.21.12L20.4,41Z"/><path class="cls-1" d="M22.44,37l-.84,1.45.2.12.84-1.45Z"/><path class="cls-1" d="M33.3,18.7l.84-1.45-.2-.12-.84,1.45Z"/><path class="cls-1" d="M49.5,40.49,52,41.91l.12-.21-2.45-1.42Z"/><path class="cls-1" d="M6.23,15.24,3.78,13.82,3.66,14l2.45,1.42Z"/><path class="cls-1" d="M40.92,35.54l3.68,2.13.12-.21L41,35.33Z"/><path class="cls-1" d="M14.82,20.19l-3.68-2.12-.12.21L14.7,20.4Z"/><path class="cls-1" d="M37,33.3l1.45.84.13-.2-1.45-.84Z"/><path class="cls-1" d="M18.7,22.44l-1.45-.84-.12.2,1.45.84Z"/><path class="cls-1" d="M20.44,3.93l-.85-2.7-.23.08L20.22,4Z"/><path class="cls-1" d="M35.29,51.81l.85,2.7.22-.08-.85-2.7Z"/><path class="cls-1" d="M32.31,42.35l1.28,4.05.23-.07-1.28-4.05Z"/><path class="cls-1" d="M23.43,13.39,22.15,9.33l-.23.07,1.28,4.05Z"/><path class="cls-1" d="M31,38.07l.5,1.6.23-.08-.5-1.6Z"/><path class="cls-1" d="M24.77,17.66l-.5-1.6-.23.08.5,1.6Z"/><path class="cls-1" d="M3.93,35.29l-2.7.85.08.23L4,35.52Z"/><path class="cls-1" d="M51.8,20.44l2.7-.85-.07-.23-2.7.85Z"/><path class="cls-1" d="M13.39,32.31,9.33,33.59l.07.23,4.05-1.28Z"/><path class="cls-1" d="M42.35,23.43l4.05-1.28-.07-.23L42.27,23.2Z"/><path class="cls-1" d="M38.07,24.77l1.6-.5L39.59,24l-1.6.5Z"/><path class="cls-1" d="M17.66,31l-1.6.5.08.23,1.6-.5Z"/><path class="cls-1" d="M19,45.12,18.81,45"/><path class="cls-1" d="M16.19,50l.21.11"/><path class="cls-1" d="M16.19,50l-1.31,2.51.21.11,1.31-2.51Z"/><path class="cls-1" d="M39.54,5.7l1.31-2.51-.21-.11L39.33,5.59Z"/><path class="cls-1" d="M20.77,41.24l-2,3.77.21.11,2-3.77Z"/><path class="cls-1" d="M35,14.49l2-3.77-.21-.11-2,3.77Z"/><path class="cls-1" d="M22.84,37.27l-.77,1.48.21.1.77-1.48Z"/><path class="cls-1" d="M32.89,18.46,33.67,17l-.21-.1-.77,1.48Z"/><path class="cls-1" d="M50,39.54l2.51,1.31.11-.21-2.51-1.31Z"/><path class="cls-1" d="M5.7,16.19,3.19,14.88l-.11.21,2.51,1.31Z"/><path class="cls-1" d="M41.24,35l3.77,2,.11-.21-3.77-2Z"/><path class="cls-1" d="M14.49,20.77l-3.77-2-.11.21,3.77,2Z"/><path class="cls-1" d="M18.47,22.84,17,22.07l-.1.21,1.48.77Z"/><path class="cls-1" d="M37.27,32.9l1.48.77.1-.21-1.48-.77Z"/><path class="cls-1" d="M19.41,4.28l-1-2.66-.22.08,1,2.66Z"/><path class="cls-1" d="M36.33,51.46l1,2.66.22-.08-1-2.66Z"/><path class="cls-1" d="M22.8,13.6l-1.45-4-.22.08,1.45,4Z"/><path class="cls-1" d="M32.94,42.14l1.45,4,.22-.08-1.46-4Z"/><path class="cls-1" d="M31.4,37.92,32,39.49l.22-.08-.57-1.57Z"/><path class="cls-1" d="M24.34,17.81l-.57-1.57-.22.08.57,1.57Z"/><path class="cls-1" d="M51.46,19.41l2.66-1L54,18.21l-2.66,1Z"/><path class="cls-1" d="M4.28,36.32l-2.66,1,.08.22,2.66-1Z"/><path class="cls-1" d="M42.14,22.8l4-1.45-.08-.22-4,1.45Z"/><path class="cls-1" d="M13.6,32.93l-4,1.45.08.22,4-1.45Z"/><path class="cls-1" d="M17.82,31.4,16.24,32l.08.22,1.57-.57Z"/><path class="cls-1" d="M37.92,24.33l1.57-.57-.08-.22-1.57.57Z"/><path class="cls-1" d="M17.17,50.53,16,53.09l.22.1,1.2-2.57Z"/><path class="cls-1" d="M38.56,5.21l1.2-2.57-.22-.1-1.2,2.57Z"/><path class="cls-1" d="M34.38,14.19l1.8-3.85-.22-.1-1.79,3.85Z"/><path class="cls-1" d="M21.36,41.54l-1.8,3.85.22.1,1.8-3.85Z"/><path class="cls-1" d="M23.26,37.47,22.55,39l.21.1.71-1.52Z"/><path class="cls-1" d="M32.48,18.26l.71-1.52-.21-.1-.71,1.52Z"/><path class="cls-1" d="M5.21,17.17,2.64,16l-.1.22,2.57,1.2Z"/><path class="cls-1" d="M50.52,38.56l2.57,1.2.1-.22-2.57-1.2Z"/><path class="cls-1" d="M41.54,34.38l3.85,1.79.1-.22-3.85-1.79Z"/><path class="cls-1" d="M14.19,21.36l-3.85-1.8-.1.22,3.85,1.8Z"/><path class="cls-1" d="M37.47,32.48l1.52.71.1-.21-1.52-.71Z"/><path class="cls-1" d="M18.26,23.26l-1.52-.71-.1.21,1.52.71Z"/><path class="cls-1" d="M37.35,51.06l1.08,2.62.22-.09L37.57,51Z"/><path class="cls-1" d="M18.39,4.67,17.3,2.05l-.22.09,1.08,2.62Z"/><path class="cls-1" d="M22.18,13.83,20.56,9.91l-.22.09L22,13.92Z"/><path class="cls-1" d="M33.55,41.9l1.62,3.93.22-.09-1.63-3.93Z"/><path class="cls-1" d="M23.9,18l-.64-1.55-.22.09.64,1.55Z"/><path class="cls-1" d="M31.84,37.76l.64,1.55.22-.09-.64-1.55Z"/><path class="cls-1" d="M51.06,18.39l2.62-1.09-.09-.22L51,18.17Z"/><path class="cls-1" d="M4.67,37.34,2.06,38.43l.09.22,2.62-1.08Z"/><path class="cls-1" d="M41.9,22.18l3.93-1.63-.09-.22L41.81,22Z"/><path class="cls-1" d="M13.83,33.55,9.91,35.18l.09.22,3.93-1.63Z"/><path class="cls-1" d="M37.76,23.9l1.55-.64L39.22,23l-1.55.64Z"/><path class="cls-1" d="M18,31.83l-1.55.64.09.22,1.55-.64Z"/><path class="cls-1" d="M37.57,4.76l1.08-2.62-.22-.09L37.35,4.67Z"/><path class="cls-1" d="M18.17,51l-1.08,2.62.22.09,1.08-2.62Z"/><path class="cls-1" d="M33.77,13.92,35.4,10l-.22-.09-1.63,3.93Z"/><path class="cls-1" d="M22,41.81l-1.63,3.93.22.09,1.63-3.93Z"/><path class="cls-1" d="M23.68,37.67,23,39.22l.22.09.64-1.55Z"/><path class="cls-1" d="M32.06,18.06l.64-1.55-.22-.09L31.84,18Z"/><path class="cls-1" d="M51,37.57l2.62,1.08.09-.22-2.62-1.09Z"/><path class="cls-1" d="M4.76,18.17,2.14,17.08l-.09.22,2.62,1.09Z"/><path class="cls-1" d="M13.92,22,10,20.33l-.09.22,3.93,1.63Z"/><path class="cls-1" d="M41.81,33.77l3.93,1.63.09-.22L41.9,33.55Z"/><path class="cls-1" d="M18.06,23.68,16.51,23l-.09.22L18,23.9Z"/><path class="cls-1" d="M37.67,32.06l1.55.64.08-.22-1.55-.64Z"/><path class="cls-1" d="M38.35,50.62l1.2,2.57.22-.1-1.2-2.57Z"/><path class="cls-1" d="M17.39,5.11l-1.2-2.57-.22.1,1.2,2.57Z"/><path class="cls-1" d="M21.58,14.09l-1.8-3.85-.22.1,1.8,3.85Z"/><path class="cls-1" d="M34.16,41.64,36,45.49l.21-.1-1.8-3.85Z"/><path class="cls-1" d="M32.26,37.57,33,39.09l.21-.1-.71-1.52Z"/><path class="cls-1" d="M23.47,18.16l-.71-1.52-.21.1.71,1.52Z"/><path class="cls-1" d="M5.11,38.35l-2.57,1.2.1.22,2.57-1.2Z"/><path class="cls-1" d="M50.62,17.39l2.57-1.2-.1-.22-2.57,1.2Z"/><path class="cls-1" d="M14.09,34.16,10.24,36l.1.22,3.85-1.79Z"/><path class="cls-1" d="M41.64,21.58l3.85-1.8-.1-.22-3.85,1.8Z"/><path class="cls-1" d="M37.57,23.47l1.52-.71-.1-.21-1.52.71Z"/><path class="cls-1" d="M18.16,32.26,16.64,33l.1.21,1.52-.71Z"/><path class="cls-1" d="M19.18,51.38l-1,2.66.22.08,1-2.66Z"/><path class="cls-1" d="M36.55,4.36l1-2.66-.22-.08-1,2.66Z"/><path class="cls-1" d="M33.16,13.68l1.46-4-.22-.08-1.46,4Z"/><path class="cls-1" d="M22.57,42.06l-1.45,4,.22.08,1.45-4Z"/><path class="cls-1" d="M31.62,17.9l.57-1.57L32,16.24l-.57,1.57Z"/><path class="cls-1" d="M24.11,37.84l-.57,1.57.22.08.57-1.57Z"/><path class="cls-1" d="M4.36,19.18l-2.66-1-.08.22,2.66,1Z"/><path class="cls-1" d="M51.38,36.55l2.66,1,.08-.22-2.66-1Z"/><path class="cls-1" d="M42.06,33.16l4,1.45.08-.22-4-1.45Z"/><path class="cls-1" d="M13.68,22.57l-4-1.45-.08.22,4,1.45Z"/><path class="cls-1" d="M17.9,24.11l-1.57-.57-.08.22,1.57.57Z"/><path class="cls-1" d="M37.84,31.62l1.57.57.08-.22-1.57-.57Z"/><path class="cls-1" d="M39.33,50.14l1.31,2.51.21-.11L39.54,50Z"/><path class="cls-1" d="M16.41,5.59,15.1,3.08l-.21.11L16.19,5.7Z"/><path class="cls-1" d="M21,14.38l-2-3.77-.21.11,2,3.77Z"/><path class="cls-1" d="M34.75,41.35l2,3.77.21-.11-2-3.77Z"/><path class="cls-1" d="M32.68,37.37l.77,1.48.21-.11-.77-1.48Z"/><path class="cls-1" d="M23.05,18.36l-.77-1.48-.22.1.77,1.48Z"/><path class="cls-1" d="M5.59,39.33,3.08,40.64l.11.21L5.7,39.54Z"/><path class="cls-1" d="M50.14,16.41l2.51-1.31-.11-.21L50,16.19Z"/><path class="cls-1" d="M41.35,21l3.77-2L45,18.81l-3.77,2Z"/><path class="cls-1" d="M14.38,34.75l-3.77,2,.11.21,3.77-2Z"/><path class="cls-1" d="M37.37,23.05l1.48-.77-.1-.21-1.48.77C37.31,22.91,37.34,23,37.37,23.05Z"/><path class="cls-1" d="M18.36,32.68l-1.48.77.1.21,1.48-.77Z"/><path class="cls-1" d="M20.22,51.73l-.85,2.7.23.08.85-2.7Z"/><path class="cls-1" d="M35.52,4l.85-2.7-.22-.08-.85,2.7Z"/><path class="cls-1" d="M23.2,42.28l-1.28,4.05.23.07,1.28-4.05Z"/><path class="cls-1" d="M32.54,13.46l1.28-4.05-.23-.07-1.28,4.05Z"/><path class="cls-1" d="M24.55,38l-.5,1.6.23.08.5-1.6Z"/><path class="cls-1" d="M31.19,17.74l.5-1.6-.23-.08-.5,1.6Z"/><path class="cls-1" d="M4,20.22l-2.7-.85-.08.23,2.7.85Z"/><path class="cls-1" d="M51.73,35.52l2.7.85.08-.22-2.7-.85Z"/><path class="cls-1" d="M42.27,32.53l4.05,1.28.07-.23-4.05-1.28Z"/><path class="cls-1" d="M13.46,23.2,9.41,21.92l-.07.23,4.06,1.28Z"/><path class="cls-1" d="M38,31.19l1.6.5c0-.08.05-.15.07-.23l-1.6-.5C38,31,38,31.11,38,31.19Z"/><path class="cls-1" d="M17.74,24.55l-1.6-.5-.08.22,1.6.5Z"/><path class="cls-1" d="M15.45,6.12,14,3.66l-.21.12,1.42,2.45Z"/><path class="cls-1" d="M40.29,49.62l1.42,2.45.21-.12L40.49,49.5Z"/><path class="cls-1" d="M20.4,14.7,18.28,11l-.21.12,2.12,3.68Z"/><path class="cls-1" d="M35.33,41l2.12,3.68.21-.12-2.12-3.68Z"/><path class="cls-1" d="M22.64,18.58l-.84-1.45-.2.12.84,1.45Z"/><path class="cls-1" d="M33.09,37.15l.84,1.45.2-.12L33.3,37Z"/><path class="cls-1" d="M49.62,15.45,52.07,14,52,13.82,49.5,15.24Z"/><path class="cls-1" d="M6.12,40.29,3.66,41.71l.12.21,2.45-1.42Z"/><path class="cls-1" d="M41,20.4l3.68-2.12-.12-.21-3.68,2.12Z"/><path class="cls-1" d="M14.7,35.33,11,37.46l.12.21,3.68-2.12Z"/><path class="cls-1" d="M37.15,22.64l1.45-.84-.12-.2L37,22.44Z"/><path class="cls-1" d="M18.58,33.09l-1.45.84.12.2,1.45-.84Z"/><path class="cls-1" d="M34.47,3.7,35.2,1,35,.89l-.73,2.74Z"/><path class="cls-1" d="M21.27,52l-.73,2.74.23.06.73-2.74Z"/><path class="cls-1" d="M23.83,42.46l-1.1,4.11.23.06,1.1-4.11Z"/><path class="cls-1" d="M31.9,13.27,33,9.16l-.23-.07-1.1,4.11Z"/><path class="cls-1" d="M25,38.13l-.43,1.62.23.06.43-1.62Z"/><path class="cls-1" d="M30.74,17.61,31.17,16l-.23-.06-.43,1.62Z"/><path class="cls-1" d="M52,34.47l2.74.73.07-.23-2.74-.73Z"/><path class="cls-1" d="M3.7,21.27,1,20.53l-.07.23,2.74.73Z"/><path class="cls-1" d="M42.46,31.9,46.57,33l.06-.23-4.1-1.1Z"/><path class="cls-1" d="M13.27,23.83l-4.1-1.1L9.1,23l4.11,1.1Z"/><path class="cls-1" d="M38.13,30.74l1.62.43.06-.23-1.62-.43Z"/><path class="cls-1" d="M17.61,25,16,24.56l-.06.23,1.62.43Z"/><path class="cls-1" d="M14.51,6.68,13,4.29l-.2.13,1.52,2.39Z"/><path class="cls-1" d="M41.22,49.06l1.52,2.39.2-.13-1.52-2.39Z"/><path class="cls-1" d="M19.83,15l-2.28-3.58-.2.13,2.28,3.58Z"/><path class="cls-1" d="M35.9,40.7l2.28,3.58.2-.13L36.1,40.57Z"/><path class="cls-1" d="M33.49,36.91l.9,1.41.2-.12-.9-1.41Z"/><path class="cls-1" d="M22.25,18.82l-.9-1.41-.2.12.9,1.41Z"/><path class="cls-1" d="M49.06,14.51,51.45,13l-.13-.2-2.39,1.52Z"/><path class="cls-1" d="M6.68,41.22,4.29,42.75l.13.2,2.39-1.52Z"/><path class="cls-1" d="M40.7,19.83l3.58-2.28-.13-.2-3.58,2.28Z"/><path class="cls-1" d="M15,35.9l-3.58,2.28.13.2,3.58-2.28Z"/><path class="cls-1" d="M18.82,33.49l-1.41.9.12.2,1.41-.9Z"/><path class="cls-1" d="M36.91,22.25l1.41-.9-.12-.2-1.41.9Z"/><path class="cls-1" d="M22.33,52.3l-.61,2.77.23.05.61-2.77Z"/><path class="cls-1" d="M33.41,3.43,34,.66,33.79.61l-.62,2.77Z"/><path class="cls-1" d="M24.47,42.63l-.92,4.15.23.05.92-4.15Z"/><path class="cls-1" d="M31.26,13.11,32.18,9l-.23-.05L31,13.05Z"/><path class="cls-1" d="M30.29,17.49l.36-1.63-.23-.06-.36,1.63Z"/><path class="cls-1" d="M25.44,38.24l-.36,1.63.23.06.36-1.63Z"/><path class="cls-1" d="M3.43,22.33.66,21.71l-.05.23,2.77.61Z"/><path class="cls-1" d="M52.3,33.41l2.77.61.05-.23-2.77-.61Z"/><path class="cls-1" d="M13.11,24.47,9,23.55l-.05.23,4.15.92Z"/><path class="cls-1" d="M42.63,31.26l4.15.92.05-.23L42.68,31Z"/><path class="cls-1" d="M17.49,25.44l-1.63-.36c0,.08,0,.15-.06.23l1.63.36C17.45,25.6,17.47,25.52,17.49,25.44Z"/><path class="cls-1" d="M38.24,30.29l1.63.36.06-.23-1.63-.36C38.29,30.14,38.26,30.21,38.24,30.29Z"/><path class="cls-1" d="M13.6,7.28,12,5l-.19.14L13.4,7.42Z"/><path class="cls-1" d="M42.14,48.45l1.62,2.32.2-.14-1.62-2.32Z"/><path class="cls-1" d="M19.28,15.4l-2.44-3.48-.19.14,2.44,3.48Z"/><path class="cls-1" d="M36.45,40.33l2.44,3.48.2-.14L36.65,40.2Z"/><path class="cls-1" d="M33.88,36.66l1,1.37.19-.14-1-1.37Z"/><path class="cls-1" d="M21.85,19.07l-1-1.37-.19.14,1,1.37Z"/><path class="cls-1" d="M48.45,13.6,50.77,12l-.14-.19L48.31,13.4Z"/><path class="cls-1" d="M7.28,42.14,5,43.76,5.1,44l2.32-1.62Z"/><path class="cls-1" d="M40.34,19.28l3.48-2.44-.14-.2L40.2,19.09Z"/><path class="cls-1" d="M15.4,36.45l-3.48,2.44.14.19,3.48-2.44Z"/><path class="cls-1" d="M36.67,21.85l1.37-1-.14-.19-1.37,1Z"/><path class="cls-1" d="M19.07,33.88l-1.37,1,.14.19,1.37-1Z"/><path class="cls-1" d="M23.4,52.52l-.49,2.79.23,0,.49-2.79Z"/><path class="cls-1" d="M32.34,3.21,32.83.42l-.23,0L32.1,3.17Z"/><path class="cls-1" d="M30.61,13l.74-4.19-.23,0-.74,4.18Z"/><path class="cls-1" d="M25.12,42.76l-.74,4.19.23,0,.74-4.19Z"/><path class="cls-1" d="M29.84,17.39l.29-1.65-.24,0-.29,1.65Z"/><path class="cls-1" d="M25.9,38.34,25.61,40l.24,0,.29-1.65Z"/><path class="cls-1" d="M3.21,23.4.42,22.91l0,.23,2.79.49Z"/><path class="cls-1" d="M52.52,32.33l2.79.49,0-.23-2.79-.49Z"/><path class="cls-1" d="M42.76,30.61l4.19.74,0-.23-4.19-.74Z"/><path class="cls-1" d="M13,25.12l-4.19-.74,0,.24,4.18.74Z"/><path class="cls-1" d="M38.34,29.83l1.65.29c0-.08,0-.16,0-.24l-1.65-.29C38.37,29.68,38.36,29.76,38.34,29.83Z"/><path class="cls-1" d="M17.39,25.9l-1.65-.29c0,.08,0,.16,0,.24l1.65.29C17.37,26.06,17.38,26,17.39,25.9Z"/><path class="cls-1" d="M43,47.81l1.72,2.25.19-.15-1.72-2.25Z"/><path class="cls-1" d="M12.71,7.92,11,5.68l-.19.15,1.72,2.25Z"/><path class="cls-1" d="M37,39.95l2.59,3.37.19-.15L37.18,39.8Z"/><path class="cls-1" d="M18.75,15.78l-2.59-3.37-.19.15,2.59,3.37Z"/><path class="cls-1" d="M34.26,36.39l1,1.33.19-.14-1-1.33Z"/><path class="cls-1" d="M21.48,19.35l-1-1.33-.19.14,1,1.33Z"/><path class="cls-1" d="M47.81,12.71,50.06,11l-.15-.19-2.25,1.72Z"/><path class="cls-1" d="M7.92,43,5.68,44.74l.15.19,2.25-1.72Z"/><path class="cls-1" d="M15.79,37l-3.37,2.59.15.19,3.37-2.59Z"/><path class="cls-1" d="M39.95,18.75l3.37-2.59L43.17,16,39.8,18.56Z"/><path class="cls-1" d="M19.35,34.25l-1.33,1,.14.19,1.33-1Z"/><path class="cls-1" d="M36.39,21.48l1.33-1-.14-.19-1.33,1Z"/><path class="cls-1" d="M31.26,3,31.63.23l-.24,0L31,3Z"/><path class="cls-1" d="M24.48,52.69l-.37,2.81.24,0,.37-2.81Z"/><path class="cls-1" d="M25.77,42.87l-.55,4.21.24,0L26,42.9Z"/><path class="cls-1" d="M30,12.87l.55-4.21-.24,0-.55,4.21Z"/><path class="cls-1" d="M26.36,38.41l-.22,1.66.24,0,.22-1.66Z"/><path class="cls-1" d="M29.38,17.32l.22-1.66-.23,0-.22,1.66Z"/><path class="cls-1" d="M3,24.48.23,24.11l0,.24L3,24.71Z"/><path class="cls-1" d="M52.69,31.26l2.81.37,0-.24L52.72,31C52.71,31.1,52.7,31.18,52.69,31.26Z"/><path class="cls-1" d="M42.87,30l4.21.56,0-.24-4.21-.56Z"/><path class="cls-1" d="M12.87,25.77l-4.21-.55,0,.24,4.21.55Z"/><path class="cls-1" d="M17.32,26.36l-1.66-.22c0,.08,0,.16,0,.24l1.66.22C17.29,26.51,17.31,26.44,17.32,26.36Z"/><path class="cls-1" d="M38.41,29.38l1.66.22c0-.08,0-.16,0-.24l-1.66-.22C38.44,29.22,38.42,29.3,38.41,29.38Z"/><path class="cls-1" d="M11.86,8.6,10,6.43l-.18.16,1.82,2.17Z"/><path class="cls-1" d="M43.88,47.13,45.7,49.3l.18-.16L44.06,47Z"/><path class="cls-1" d="M18.23,16.19,15.5,12.94l-.18.16L18,16.35Z"/><path class="cls-1" d="M37.51,39.54l2.73,3.26.18-.16-2.73-3.26Z"/><path class="cls-1" d="M21.11,19.63,20,18.34l-.18.16,1.08,1.28Z"/><path class="cls-1" d="M34.63,36.11l1.08,1.28.18-.16-1.07-1.28Z"/><path class="cls-1" d="M47.13,11.86,49.3,10l-.16-.18L47,11.68Z"/><path class="cls-1" d="M8.6,43.88,6.43,45.7l.16.18,2.17-1.82Z"/><path class="cls-1" d="M39.54,18.23,42.8,15.5l-.16-.18L39.38,18Z"/><path class="cls-1" d="M16.19,37.51l-3.25,2.73.16.18,3.25-2.73Z"/><path class="cls-1" d="M19.63,34.63,18.34,35.7l.16.18,1.28-1.07Z"/><path class="cls-1" d="M36.11,21.11,37.39,20l-.16-.18L36,20.93Z"/><path class="cls-1" d="M30.17,2.92,30.42.09l-.24,0L29.93,2.9Z"/><path class="cls-1" d="M25.56,52.82l-.25,2.82.24,0,.25-2.82Z"/><path class="cls-1" d="M29.31,12.79l.37-4.23-.24,0-.37,4.23Z"/><path class="cls-1" d="M26.43,42.94l-.37,4.23.24,0L26.67,43Z"/><path class="cls-1" d="M28.92,17.25l.15-1.67h-.24l-.15,1.67Z"/><path class="cls-1" d="M26.82,38.48l-.15,1.67h.24l.15-1.67Z"/><path class="cls-1" d="M2.92,25.56.09,25.32c0,.08,0,.16,0,.24l2.82.25C2.91,25.72,2.91,25.64,2.92,25.56Z"/><path class="cls-1" d="M52.82,30.17l2.82.25,0-.24-2.82-.25C52.83,30,52.82,30.09,52.82,30.17Z"/><path class="cls-1" d="M42.94,29.3l4.23.37c0-.08,0-.16,0-.24L43,29.07C43,29.15,43,29.23,42.94,29.3Z"/><path class="cls-1" d="M12.79,26.43l-4.23-.37c0,.08,0,.16,0,.24l4.23.37C12.78,26.59,12.78,26.51,12.79,26.43Z"/><path class="cls-1" d="M17.25,26.82l-1.67-.15c0,.08,0,.16,0,.24l1.67.15C17.25,27,17.25,26.9,17.25,26.82Z"/><path class="cls-1" d="M38.48,28.91l1.67.15c0-.08,0-.16,0-.24l-1.67-.15C38.49,28.76,38.49,28.84,38.48,28.91Z"/><path class="cls-1" d="M44.7,46.42l1.91,2.09.17-.16-1.91-2.09Z"/><path class="cls-1" d="M11,9.32,9.12,7.23l-.17.16,1.91,2.09Z"/><path class="cls-1" d="M17.73,16.63l-2.87-3.13-.17.16,2.87,3.13Z"/><path class="cls-1" d="M38,39.11l2.87,3.13.17-.16-2.87-3.13Z"/><path class="cls-1" d="M20.76,19.94,19.63,18.7l-.18.16,1.13,1.23Z"/><path class="cls-1" d="M35,35.8,36.1,37l.18-.16-1.13-1.23Z"/><path class="cls-1" d="M9.32,44.7,7.23,46.62l.16.17,2.09-1.91Z"/><path class="cls-1" d="M46.42,11,48.5,9.12l-.16-.17-2.09,1.91Z"/><path class="cls-1" d="M16.63,38l-3.13,2.87.16.17,3.13-2.87Z"/><path class="cls-1" d="M39.11,17.73l3.13-2.87-.16-.17-3.13,2.87Z"/><path class="cls-1" d="M19.94,35,18.7,36.1l.16.18,1.23-1.13Z"/><path class="cls-1" d="M35.8,20.76,37,19.63l-.16-.18-1.23,1.13Z"/><path class="cls-1" d="M26.66,52.9l-.12,2.83h.24l.12-2.83Z"/><path class="cls-1" d="M29.08,2.84,29.2,0H29l-.12,2.83Z"/><path class="cls-1" d="M28.65,12.74l.19-4.25h-.24l-.18,4.25Z"/><path class="cls-1" d="M27.09,43l-.19,4.25h.24L27.33,43Z"/><path class="cls-1" d="M27.28,38.5l-.07,1.67h.24l.07-1.67Z"/><path class="cls-1" d="M28.45,17.23l.07-1.67h-.24l-.07,1.67Z"/><path class="cls-1" d="M2.84,26.65,0,26.53c0,.08,0,.16,0,.24l2.83.12C2.83,26.81,2.83,26.73,2.84,26.65Z"/><path class="cls-1" d="M52.9,29.08l2.83.12c0-.08,0-.16,0-.24l-2.83-.12C52.9,28.92,52.9,29,52.9,29.08Z"/><path class="cls-1" d="M12.74,27.09,8.49,26.9c0,.08,0,.16,0,.24l4.25.19C12.74,27.25,12.74,27.17,12.74,27.09Z"/><path class="cls-1" d="M43,28.65l4.24.19c0-.08,0-.16,0-.24L43,28.41C43,28.49,43,28.57,43,28.65Z"/><path class="cls-1" d="M17.23,27.28l-1.67-.07c0,.08,0,.16,0,.24l1.67.07C17.22,27.44,17.23,27.36,17.23,27.28Z"/><path class="cls-1" d="M38.5,28.45l1.67.07c0-.08,0-.16,0-.24l-1.67-.07C38.51,28.29,38.51,28.37,38.5,28.45Z"/><path class="cls-1" d="M70.27,24.68a3.63,3.63,0,1,1,0-7.25,3.67,3.67,0,0,1,2.9,1.24,4.38,4.38,0,0,1,.47.68l.69-.38a4.32,4.32,0,0,0-1.67-1.67,5.12,5.12,0,0,0-2.43-.6A4.41,4.41,0,0,0,65.59,21a4.32,4.32,0,0,0,4.64,4.37A4.71,4.71,0,0,0,74,23.77a5.19,5.19,0,0,0,.55-.79l-.71-.34A3.87,3.87,0,0,1,70.27,24.68Z"/><path class="cls-1" d="M81.62,16.69c-3,0-4.89,1.94-4.89,4.37s1.93,4.36,4.81,4.36,4.93-2,4.93-4.37C86.47,18.93,84.89,16.71,81.62,16.69Zm0,8c-2.27,0-4-1.36-4-3.62a3.64,3.64,0,0,1,3.77-3.69,4.78,4.78,0,0,1,2.76.7A3.47,3.47,0,0,1,85.57,21,3.64,3.64,0,0,1,81.61,24.71Z"/><polygon class="cls-1" points="97.13 24.18 90.07 16.95 89.33 16.95 89.33 25.19 90.07 25.19 90.07 18 97.13 25.19 97.87 25.19 97.87 16.95 97.13 16.95 97.13 24.18"/><path class="cls-1" d="M105.4,24.68a3.56,3.56,0,0,1-3.81-3.59,3.6,3.6,0,0,1,3.81-3.67,3.67,3.67,0,0,1,2.9,1.24,4.4,4.4,0,0,1,.47.68l.69-.38a4.33,4.33,0,0,0-1.67-1.67,5.12,5.12,0,0,0-2.43-.6A4.41,4.41,0,0,0,100.72,21a4.32,4.32,0,0,0,4.64,4.37,4.71,4.71,0,0,0,3.76-1.63,5.18,5.18,0,0,0,.55-.79l-.71-.34A3.87,3.87,0,0,1,105.4,24.68Z"/><path class="cls-1" d="M116.75,16.69c-3,0-4.89,1.94-4.89,4.37s1.93,4.36,4.81,4.36,4.93-2,4.93-4.37C121.6,18.93,120,16.71,116.75,16.69Zm0,8c-2.27,0-4-1.36-4-3.62a3.64,3.64,0,0,1,3.77-3.69,4.78,4.78,0,0,1,2.76.7A3.47,3.47,0,0,1,120.7,21,3.64,3.64,0,0,1,116.74,24.71Z"/><path class="cls-1" d="M132.21,21A2.16,2.16,0,0,0,133,19.2a2.2,2.2,0,0,0-1-1.94,3.7,3.7,0,0,0-1.81-.32h-5.7v8.24h.79V21.51H129l3.26,3.68h1.11l-3.32-3.68A3.67,3.67,0,0,0,132.21,21Zm-7-.14V17.63h4.93a2.19,2.19,0,0,1,1.4.33,1.51,1.51,0,0,1,.56,1.22,1.66,1.66,0,0,1-.4,1.11,2.68,2.68,0,0,1-2.07.54Z"/><path class="cls-1" d="M142.57,17.35a4.59,4.59,0,0,0-2.2-.4h-4.12v8.24H140a5.4,5.4,0,0,0,3-.66,4,4,0,0,0,1.67-3.44A4,4,0,0,0,142.57,17.35Zm.32,6.35a4.54,4.54,0,0,1-3.19.8h-2.63V17.63h3.32a3.21,3.21,0,0,1,2.74,1.15,3.84,3.84,0,0,1,.72,2.36A3.33,3.33,0,0,1,142.89,23.7Z"/><polygon class="cls-1" points="148.36 21.21 154.92 21.21 154.92 20.52 148.36 20.52 148.36 17.64 155.45 17.64 155.45 16.95 147.56 16.95 147.56 25.19 155.79 25.19 155.79 24.5 148.36 24.5 148.36 21.21"/><rect class="cls-1" x="65.59" y="31.2" width="0.77" height="8.12"/><polygon class="cls-1" points="76.86 38.32 69.9 31.2 69.18 31.2 69.18 39.32 69.9 39.32 69.9 32.23 76.86 39.32 77.59 39.32 77.59 31.2 76.86 31.2 76.86 38.32"/><path class="cls-1" d="M86.63,31.59a4.52,4.52,0,0,0-2.16-.39H80.41v8.12h3.68a5.33,5.33,0,0,0,3-.65,3.92,3.92,0,0,0,1.64-3.38A4,4,0,0,0,86.63,31.59Zm.31,6.26a4.47,4.47,0,0,1-3.14.79H81.21V31.88h3.27A3.17,3.17,0,0,1,87.19,33a3.78,3.78,0,0,1,.71,2.32A3.27,3.27,0,0,1,86.94,37.85Z"/><path class="cls-1" d="M99.07,35.89c0,2-.89,2.9-3.37,2.9-2.13,0-3.42-.69-3.37-2.76V31.19h-.75V36.1c0,2.35,1.35,3.43,4.12,3.43s4.11-1.06,4.11-3.52V31.19h-.74Z"/><path class="cls-1" d="M110,35.18a8.14,8.14,0,0,0-1.82-.43c-.45-.07-2.39-.32-2.79-.4s-1.16-.36-1.16-1c0-1,1.13-1.62,2.85-1.62,2.16,0,2.89,1,3.14,1.3l.74-.4a4.67,4.67,0,0,0-3.82-1.6c-2.55,0-3.74,1.14-3.74,2.36a1.63,1.63,0,0,0,1,1.53,6,6,0,0,0,1.66.39l1.51.2c1.75.23,2.77.45,2.77,1.5s-1.29,1.86-3.19,1.86a6.62,6.62,0,0,1-1.35-.13,2.66,2.66,0,0,1-2.2-1.73l-.85.32a3.28,3.28,0,0,0,1.61,1.7,5.75,5.75,0,0,0,2.85.54c2.26,0,3.21-.85,3.6-1.45a2.21,2.21,0,0,0,.36-1.17A1.85,1.85,0,0,0,110,35.18Z"/><polygon class="cls-1" points="112.63 31.88 116.28 31.88 116.28 39.32 117.05 39.32 117.05 31.88 120.53 31.88 120.53 31.2 112.63 31.2 112.63 31.88"/><path class="cls-1" d="M129.63,35.15a2.13,2.13,0,0,0,.78-1.73,2.18,2.18,0,0,0-1-1.91,3.65,3.65,0,0,0-1.78-.31H122v8.12h.78V35.7h3.71l3.21,3.62h1.09l-3.27-3.62A3.64,3.64,0,0,0,129.63,35.15ZM122.78,35V31.87h4.86a2.15,2.15,0,0,1,1.38.32,1.49,1.49,0,0,1,.55,1.2,1.64,1.64,0,0,1-.39,1.09,2.64,2.64,0,0,1-2,.53Z"/><rect class="cls-1" x="133.61" y="31.2" width="0.77" height="8.12"/><polygon class="cls-1" points="138 35.4 144.45 35.4 144.45 34.72 138 34.72 138 31.88 144.98 31.88 144.98 31.2 137.2 31.2 137.2 39.32 145.31 39.32 145.31 38.64 138 38.64 138 35.4"/><path class="cls-1" d="M154.82,35.18a8.2,8.2,0,0,0-1.82-.43c-.45-.07-2.39-.32-2.79-.4s-1.16-.36-1.16-1c0-1,1.13-1.62,2.86-1.62,2.16,0,2.89,1,3.14,1.3l.74-.4A4.66,4.66,0,0,0,152,31c-2.55,0-3.74,1.14-3.74,2.36a1.63,1.63,0,0,0,1,1.53,6.05,6.05,0,0,0,1.66.39l1.51.2c1.75.23,2.77.45,2.77,1.5s-1.29,1.86-3.19,1.86a6.61,6.61,0,0,1-1.35-.13,2.66,2.66,0,0,1-2.2-1.73l-.85.32A3.26,3.26,0,0,0,149.2,39a5.73,5.73,0,0,0,2.85.54c2.26,0,3.21-.85,3.6-1.45a2.21,2.21,0,0,0,.36-1.17A1.85,1.85,0,0,0,154.82,35.18Z"/></g></g></svg>