<svg xmlns="http://www.w3.org/2000/svg" viewBox="0 0 360.33 55.04"><defs><style>.cls-1{fill:#fff;}.cls-2{fill:#9a181d;}.cls-3{fill:#ccc;}</style></defs><title>Asset 1</title><g id="Layer_2" data-name="Layer 2"><g id="Layer_1-2" data-name="Layer 1"><path class="cls-1" d="M108,25.83l-5.23-12.33-5,12.33h-2L87.46,4.59c-1.2-3-2.15-3.47-4.71-3.47h-.24V.36H92.85v.76h-.68c-1.87,0-2.6.84-1.92,2.51l7.26,18.29,4.31-10.66L98.6,3.39c-.8-2-2-2.28-4.11-2.28V.36h16.36v.76c-2.47,0-3.31.6-4,2.12l-2.55,6.23,5.23,12.45,7.06-18.52c.64-1.63.12-2.2-2.79-2.28V.36h8.26v.76c-2.44,0-3,.48-4.19,3.63l-8,21.08Zm-2.75-23c.44-1.08.16-1.72-1-1.72h-1.67c-1,0-1.6.4-1.12,1.48l2,4.63Z"/><path class="cls-1" d="M133.87,25.18h-9.7v-.76c2.47-.12,3-.76,3-3.43V4c0-2.16-.76-2.75-3-2.88V.36h9.7v.76c-2.51,0-3.4.56-3.4,3.23V21.28c0,2.35.64,3.15,3.4,3.15Z"/><path class="cls-1" d="M154.19,16.2h-.75c-.32-2.84-1.08-3.15-2.72-3.15H144v8.5c0,1.84.68,2.2,2.16,2.2h6.15c2.8,0,3.64-1.08,4.63-4.51h.72L157,25.18H135.79v-.76h1.12c3.2,0,3.75-.88,3.75-3.27V4.31c0-2.24-.52-3.2-3.19-3.2h-.88V.36h19.16l.31,5.55h-.72c-.52-3.39-1.51-4.11-3-4.11H144v9.82h7.15c1.43,0,2.11-.68,2.31-3h.75Z"/><path class="cls-1" d="M163.8,4.35c0-2.59-.68-3.23-3-3.23H160V.36c1.48-.08,3.43-.16,5.63-.24S170.22,0,172.3,0c10.54,0,15.21,5.35,15.21,11.94,0,6-4.67,13.24-14.77,13.24H160v-.76h.68c2.16,0,3.15-.59,3.15-2.91Zm3.31,17.89c0,1.64.13,2.19,3.27,2.19,5.35,0,7.59-.76,10.06-3.23a12.32,12.32,0,0,0,3.31-8.62A12,12,0,0,0,180.56,4C178.73,2.16,175.89.75,170.3.75c-1.63,0-2.71.12-3.19.16Z"/><path class="cls-1" d="M208.22,16.2h-.76c-.32-2.84-1.08-3.15-2.72-3.15H198v8.5c0,1.84.68,2.2,2.16,2.2h6.15c2.8,0,3.63-1.08,4.63-4.51h.72L211,25.18h-21.2v-.76h1.12c3.19,0,3.75-.88,3.75-3.27V4.31c0-2.24-.52-3.2-3.19-3.2h-.88V.36h19.16l.31,5.55h-.71c-.52-3.39-1.51-4.11-3-4.11H198v9.82h7.15c1.43,0,2.12-.68,2.32-3h.76Z"/><path class="cls-1" d="M221.34,21.43c0,2.4,1,3,3.19,3h.92v.76h-11.3v-.76h.68c2.35,0,3.19-.63,3.19-3.31V4.31c0-2.48-.68-3.2-3-3.2h-.88V.36c1,0,3.4-.16,5-.24s2.43-.12,5-.12c7.39,0,10.7,3,10.7,7.1,0,3-2,5.51-5.31,6.47a47.66,47.66,0,0,1,4.55,4.15l3.15,3.15c2.35,2.35,4.79,3.83,7.86,4v.72c-7,.32-8.78-1.2-12.33-4.75l-2.64-2.63a29.31,29.31,0,0,0-4.11-3.55c-1,0-1.64.08-2.71.08-.88,0-1.4,0-2-.08Zm0-7.5a17.4,17.4,0,0,0,2.48.08c4.43,0,7.34-1.88,7.34-6.67,0-3.71-1.67-6.59-7.82-6.59a15.17,15.17,0,0,0-2,.09Z"/><path class="cls-1" d="M261.6,25.18v-.76c1.83,0,2.6-.35,2.6-1.12s-.88-2-4.91-6.07c-3.2-3.19-4.15-3.79-5.91-3.59v7.46c0,2.51.72,3.31,3.2,3.31h.51v.76H246.16v-.76h.71c2.56,0,3.19-.88,3.19-2.91V4c0-2.4-1.08-2.88-3.19-2.88h-.71V.36h10.78v.76h-.36c-2.4,0-3.2.76-3.2,3.15V12.9c1.56-.17,2.8-.88,4.47-2.56,3.11-3.12,5.54-6.71,5.54-8,0-.91-.6-1.24-2.75-1.24V.36h10.49v.76c-2.83,0-4.06.44-5.26,1.64s-3.75,6.23-7.95,9.42c.72.12,1.44.72,3.19,2.47,4.19,4.19,6.43,7.31,7.74,8.63.68.67,1.72,1.15,4.43,1.15v.76Z"/><path class="cls-1" d="M291.77,16.2H291c-.32-2.84-1.08-3.15-2.72-3.15h-6.75v8.5c0,1.84.68,2.2,2.16,2.2h6.15c2.79,0,3.62-1.08,4.62-4.51h.72l-.63,5.95h-21.2v-.76h1.12c3.19,0,3.75-.88,3.75-3.27V4.31c0-2.24-.52-3.2-3.19-3.2h-.88V.36h19.16l.32,5.55h-.72c-.52-3.39-1.52-4.11-3-4.11h-8.42v9.82h7.14c1.43,0,2.12-.68,2.32-3h.76Z"/><path class="cls-1" d="M304.86,13.33v7.59c0,2.59.52,3.51,3.2,3.51h.11v.76h-10v-.76h.24c2.35,0,3.15-.63,3.15-2.91V4c0-2.08-.68-2.67-2.87-2.83V.36h9.5v.76c-2.83,0-3.31.76-3.31,3.83v6.95h15.65V4c0-2.12-.68-2.91-3.15-2.91h-.75V.36h10.25v.76c-2.4.08-3,.8-3,3.27V21c0,2.84.8,3.47,3.19,3.47h.4v.76h-11.3v-.76h1.24c2.59,0,3.15-.92,3.15-3v-8.1Z"/><path class="cls-1" d="M336.5,21.43c0,2.4,1,3,3.2,3h.92v.76h-11.3v-.76H330c2.35,0,3.2-.63,3.2-3.31V4.31c0-2.48-.68-3.2-3-3.2h-.88V.36c1,0,3.39-.16,5-.24s2.44-.12,5-.12c7.38,0,10.7,3,10.7,7.1,0,3-2,5.51-5.31,6.47a47.81,47.81,0,0,1,4.55,4.15l3.15,3.15c2.36,2.35,4.79,3.83,7.87,4v.72c-7,.32-8.78-1.2-12.34-4.75l-2.63-2.63a29.37,29.37,0,0,0-4.11-3.55c-1,0-1.64.08-2.71.08-.88,0-1.4,0-2-.08Zm0-7.5A17.39,17.39,0,0,0,339,14c4.43,0,7.34-1.88,7.34-6.67,0-3.71-1.67-6.59-7.82-6.59a15.27,15.27,0,0,0-2,.09Z"/><path class="cls-1" d="M73.38,54.56H72.25L66.3,49.8a14.25,14.25,0,0,1-1.11-1V54H64.11V47.37H65.2l6.44,5.21.65.56V47.22h1.09Z"/><path class="cls-1" d="M64.11,38.51V37.28h5.36a6.34,6.34,0,0,1,2.22.32A2.7,2.7,0,0,1,73,38.74a4.07,4.07,0,0,1,.51,2.17A4.44,4.44,0,0,1,73.1,43a2.6,2.6,0,0,1-1.3,1.19,6.23,6.23,0,0,1-2.33.35H64.11V43.35h5.36a5.23,5.23,0,0,0,1.78-.22,1.7,1.7,0,0,0,.88-.77A2.73,2.73,0,0,0,72.44,41a2.55,2.55,0,0,0-.61-1.93,3.5,3.5,0,0,0-2.36-.57Z"/><path class="cls-1" d="M73.38,33.92H64.11V29.81a5.42,5.42,0,0,1,.25-1.88,2,2,0,0,1,.88-1,2.64,2.64,0,0,1,1.4-.38,2.34,2.34,0,0,1,1.66.64,3.24,3.24,0,0,1,.86,2,3.34,3.34,0,0,1,.46-.74,6.5,6.5,0,0,1,1.23-1l2.52-1.61v1.54l-1.93,1.23c-.56.36-1,.65-1.28.89a3,3,0,0,0-.62.62,2,2,0,0,0-.25.57,4,4,0,0,0,0,.68V32.7h4.12ZM68.2,32.7V30.06A4,4,0,0,0,68,28.74a1.42,1.42,0,0,0-.56-.72,1.5,1.5,0,0,0-.83-.24,1.39,1.39,0,0,0-1.08.47,2.26,2.26,0,0,0-.42,1.52V32.7Z"/><path class="cls-1" d="M73.38,23.08H64.11V21.84h9.28Z"/><path class="cls-1" d="M70.13,11.77l.31-1.23a4.17,4.17,0,0,1,2.31,1.39,3.83,3.83,0,0,1,.79,2.46,4.4,4.4,0,0,1-.61,2.43,3.89,3.89,0,0,1-1.77,1.44,6.36,6.36,0,0,1-2.49.49,5.44,5.44,0,0,1-2.53-.56,3.79,3.79,0,0,1-1.64-1.58,4.59,4.59,0,0,1-.56-2.25A3.84,3.84,0,0,1,64.65,12a3.74,3.74,0,0,1,2-1.32l.29,1.21a2.85,2.85,0,0,0-1.47.94A2.49,2.49,0,0,0,65,14.38a3,3,0,0,0,.51,1.79,2.76,2.76,0,0,0,1.38,1,5.63,5.63,0,0,0,1.79.29,5.53,5.53,0,0,0,2.07-.35,2.58,2.58,0,0,0,1.32-1.07,3.06,3.06,0,0,0,.43-1.58,2.65,2.65,0,0,0-.59-1.75A3.06,3.06,0,0,0,70.13,11.77Z"/><path class="cls-1" d="M73.38,7.68H64.11V6.46h3.81V1.63H64.11V.41h9.28V1.63H69V6.46h4.37Z"/><path class="cls-2" d="M38.93,23.32v.85l.74,0v-.82Z"/><path class="cls-2" d="M31.64,33.78,34.53,28c.92-1.86,1.48-2.82,2.31-3.31-1.37.27-1.89,1.06-3.09,3.49l-2.85,5.7,5.78,11.89L37,45,31.59,33.86Z"/><path class="cls-2" d="M28.34,27.18a5.17,5.17,0,0,1-.69-2.08.79.79,0,0,1,.17-.53c-.82.07-.9.25-.9.53A5,5,0,0,0,27.56,27l1.91,3.91.35-.72Z"/><path class="cls-2" d="M28.19,39.69,22.79,51l.65.1,5.11-10.68Z"/><path class="cls-2" d="M14,25.81a1.31,1.31,0,0,1,.47-1.14c-1,.16-1.21.49-1.21,1.14a14.34,14.34,0,0,0,1.45,4.05l7.57,16.05.35-.73L15.53,30A15.6,15.6,0,0,1,14,25.81Z"/><path class="cls-1" d="M27.21.6A26.82,26.82,0,1,0,54,27.43,26.85,26.85,0,0,0,27.21.6ZM18.83,50.29a24.47,24.47,0,0,1-16-22.86,23.85,23.85,0,0,1,.22-3.11l0-.18h.17l.78,0h.19a7.17,7.17,0,0,1,1.55.22,3.41,3.41,0,0,1,.73.29C7.43,25.19,8,26.16,8.88,28l10.4,22.45Zm14.86.62a24.69,24.69,0,0,1-6.48.9,24,24,0,0,1-3.55-.27l-.2,0-1-.17h0l-.24,0,6-12.5L28.75,40l.11.23.11.22,4.94,10.42ZM27.21,27.18a5.12,5.12,0,0,1-.69-2.08c0-.81.69-1,2.15-1h1.65a4.28,4.28,0,0,1,1.58.2.91.91,0,0,1,.32.22.8.8,0,0,1,.2.57,4,4,0,0,1-.51,1.6l-1.67,3.47-.11.22-.11.22-.56,1.17Zm24.13-3,0,.12s0,0,0,.07,0,.13,0,.19a23.55,23.55,0,0,1,.19,2.85,24.24,24.24,0,0,1-12.08,21l-.28.15-.27.15c-.32.18-.64.36-1,.53l-.47.23L46.08,29c1.81-4.32,2.63-4.81,5.09-4.86h.17Zm-.17-1.11v0l0,.19H42v.82l.74,0,.2,0a5.54,5.54,0,0,1,1.21.2,2.1,2.1,0,0,1,.61.28,1.17,1.17,0,0,1,.49,1,6.09,6.09,0,0,1-.68,2.25L37.42,45l-.1.24-.1.24L36.7,46.7,30.46,33.86l0-.09L33.4,28c1.66-3.37,2.17-3.79,5.14-3.85v-.82H18.06v.81H19a4.83,4.83,0,0,1,1.29.2,2.41,2.41,0,0,1,.56.26c.76.48,1.32,1.45,2.23,3.38l4.13,8.72,0,.08L23.1,45.19l-.11.23-.11.22-.57,1.18L14.4,30a15.53,15.53,0,0,1-1.49-4.22c0-1.27.77-1.56,2.89-1.66v-.82H3.2l0-.23a24.34,24.34,0,0,1,47.9-.15Z"/><path class="cls-2" d="M16.19,23.32v.87l.74,0v-.82Z"/><path class="cls-2" d="M50,24.63c-1.34.23-2.09,1.08-3.53,4.54l-8.16,19.5c.32-.17.62-.35.93-.52L47.2,29C48.3,26.38,49.05,25.18,50,24.63Z"/><path class="cls-3" d="M28.86,40.2,28.75,40l-.56-1.18-6,12.5.24,0h0l1,.17.2,0a24,24,0,0,0,3.55.27,24.69,24.69,0,0,0,6.48-.9l.22-.06L29,40.42ZM23.43,51.1l-.65-.1,5.4-11.31.35.73Zm.4.06,4.92-10.29,4.61,9.71A23.54,23.54,0,0,1,23.83,51.17Z"/><path class="cls-3" d="M46.08,29,37.51,49.49l.47-.23c.33-.17.65-.35,1-.53l.27-.15.28-.15a24.24,24.24,0,0,0,12.08-21,23.55,23.55,0,0,0-.19-2.85c0-.07,0-.12,0-.19s0,0,0-.07l0-.12v-.05h-.17C48.7,24.21,47.88,24.7,46.08,29ZM39.2,48.15c-.31.18-.61.36-.93.52l8.16-19.5c1.45-3.46,2.19-4.31,3.53-4.54-.92.55-1.66,1.75-2.76,4.39Zm.55-.31,7.81-18.67c1.42-3.4,2.18-4.28,3.44-4.53a23.67,23.67,0,0,1-11.25,23.2Z"/><path class="cls-3" d="M6.5,24.68a3.41,3.41,0,0,0-.73-.29,7.17,7.17,0,0,0-1.55-.22H4l-.78,0H3.07l0,.18a23.85,23.85,0,0,0-.22,3.11,24.47,24.47,0,0,0,16,22.86l.44.16L8.88,28C8,26.16,7.43,25.19,6.5,24.68ZM3.22,27.43a23.09,23.09,0,0,1,.2-2.89c3.06,0,3.65.47,5.1,3.62l10,21.59A24.07,24.07,0,0,1,3.22,27.43Z"/><path class="cls-3" d="M30,30.65l.11-.22.11-.22,1.67-3.47a4,4,0,0,0,.51-1.6.8.8,0,0,0-.2-.57.91.91,0,0,0-.32-.22,4.28,4.28,0,0,0-1.58-.2H28.68c-1.46,0-2.15.14-2.15,1a5.12,5.12,0,0,0,.69,2.08l2.26,4.64Zm-.23-6.12h.52c1.59,0,1.71.27,1.71.6a3.48,3.48,0,0,1-.47,1.43L30,29.76,28.69,27A5,5,0,0,1,28,25.1C28,24.74,28.16,24.54,29.81,24.54ZM27.56,27a5,5,0,0,1-.65-1.92c0-.28.08-.46.9-.53a.79.79,0,0,0-.17.53,5.17,5.17,0,0,0,.69,2.08l1.48,3-.35.72Z"/><path class="cls-3" d="M27.21.21a27.21,27.21,0,1,0,27.2,27.21A27.24,27.24,0,0,0,27.21.21Zm0,54A26.82,26.82,0,1,1,54,27.43,26.85,26.85,0,0,1,27.21,54.24Z"/><path class="cls-3" d="M27.21,3a24.35,24.35,0,0,0-24,20.05l0,.23H15.8v.82c-2.13.1-2.89.39-2.89,1.66A15.53,15.53,0,0,0,14.4,30l7.92,16.79.57-1.18.11-.22.11-.23,4.06-8.39,0-.08L23.07,28c-.9-1.93-1.46-2.89-2.23-3.38a2.41,2.41,0,0,0-.56-.26,4.83,4.83,0,0,0-1.29-.2h-.93v-.81H38.54v.82c-3,.06-3.48.48-5.14,3.85l-2.89,5.79,0,.09L36.7,46.7l.52-1.25.1-.24.1-.24,7.14-17a6.09,6.09,0,0,0,.68-2.25,1.17,1.17,0,0,0-.49-1,2.1,2.1,0,0,0-.61-.28,5.54,5.54,0,0,0-1.21-.2l-.2,0-.74,0v-.82h9.21l0-.19v0l0-.15A24.34,24.34,0,0,0,27.21,3ZM22.32,45.91,14.75,29.86a14.34,14.34,0,0,1-1.45-4.05c0-.65.21-1,1.21-1.14A1.31,1.31,0,0,0,14,25.81,15.6,15.6,0,0,0,15.53,30l7.15,15.16Zm14.36-.15L30.9,33.86l2.85-5.7c1.2-2.43,1.72-3.22,3.09-3.49-.82.5-1.39,1.46-2.31,3.31l-2.89,5.79,0,.09L37,45Zm6.06-22.81H41.61v1.59h.2c2.55,0,3.05.41,3.05,1.14a6.47,6.47,0,0,1-.66,2.1l-7,16.73L32,33.86l2.85-5.7c1.63-3.32,2-3.59,5-3.63h.19V22.94H17.67v1.59h.2c2.83,0,3.19.09,4.85,3.63l4.06,8.55-3.88,8-7-14.87a14.24,14.24,0,0,1-1.45-4.05c0-.9.37-1.18,2.71-1.27l.19,0V22.94H3.66a24,24,0,0,1,47.09,0Zm-3.81,1.23v-.85h.74v.82Zm-22.74,0v-.87h.74v.82Z"/><path class="cls-2" d="M186.08,53h-5.86c-1.16,0-1.59-.4-1.59-1.47V33.11c0-2.47.68-2.75,3.27-2.75h1.47V29.6H171.61v.76h.56c2.51,0,3.15.88,3.15,3V51c0,2-.68,2.63-2.51,2.63h-1.31c-2,0-2.83-.4-3.63-2.51L159.53,29h-3.47l.36.88-7.26,19.82c-1.28,3.47-1.71,3.91-4.31,3.95v.76h9.21v-.76h-.64c-2.19,0-3.23-.4-3.23-1.47a11.22,11.22,0,0,1,.8-2.51l2.31-6.26h8.25l2.67,7.26a4.45,4.45,0,0,1,.44,1.63c0,1.12-.84,1.36-3.11,1.36h-1v.76h28.78l3.07-5.82h-.72C189.15,52,188.43,53,186.08,53ZM154,41.64l3.39-9.29,3.51,9.29Z"/><path class="cls-2" d="M218,53h-6.14c-1.47,0-2.15-.36-2.15-2.19V42.28h6.74c1.63,0,2.39.32,2.71,3.15h.76V37.85h-.76c-.2,2.31-.88,3-2.31,3h-7.14V31h8.41c1.44,0,2.43.72,3,4.11h.72l-.32-5.54H202.29v.76h.88c2.67,0,3.19,1,3.19,3.19V50.37c0,2.39-.56,3.27-3.75,3.27h-1.12v.76h21.17l.64-5.94h-.72C221.59,51.89,220.75,53,218,53Z"/><path class="cls-2" d="M229,33.71c0-2.23,1.83-3.75,4.47-3.75a7,7,0,0,1,6.42,4.7h.68l-.68-5.06h-.64a.76.76,0,0,1-.72.4c-1.4,0-2.07-1-5.42-1-4.07,0-7.1,2.47-7.1,5.78,0,7,12.8,8.73,12.8,14.47,0,3.15-2.83,4.71-5.5,4.71a6.91,6.91,0,0,1-6.74-5.62h-.76l.84,6.06h.68a1,1,0,0,1,.8-.44c.56,0,3.35,1.08,5.54,1.08,4.66,0,8.13-2.91,8.13-6.82C241.8,40.88,229,39.37,229,33.71Z"/><path class="cls-2" d="M266.91,29c-.08.48-.68.6-1.24.6H246.5a2.56,2.56,0,0,1-.8-.12.6.6,0,0,1-.44-.48h-.76l-.64,6.46h.72c.6-3.51,1.32-4.43,2.91-4.43h6.94v19.7c0,2.15-.72,2.91-3.15,2.91h-1.48v.76h12.56v-.76h-1.48c-2.43,0-3.15-.76-3.15-2.91V31h6.94c1.59,0,2.31.92,2.91,4.43h.72L267.67,29Z"/><path class="cls-2" d="M291.75,51.13,283.41,29h-3.47l.36.88L273,49.69c-1.28,3.47-1.71,3.91-4.31,3.95v.76H278v-.76h-.64c-2.19,0-3.23-.4-3.23-1.47a11.23,11.23,0,0,1,.8-2.51l2.31-6.26h8.25l2.67,7.26a4.43,4.43,0,0,1,.44,1.63c0,1.12-.84,1.36-3.11,1.36h-1v.76h11v-.76C293.38,53.64,292.54,53.24,291.75,51.13Zm-13.87-9.49,3.39-9.29,3.51,9.29Z"/><path class="cls-2" d="M318.89,29c-.08.48-.68.6-1.24.6H298.48a2.56,2.56,0,0,1-.8-.12.6.6,0,0,1-.44-.48h-.76l-.64,6.46h.72c.6-3.51,1.32-4.43,2.91-4.43h6.94v19.7c0,2.15-.72,2.91-3.15,2.91h-1.47v.76h12.56v-.76h-1.47c-2.43,0-3.15-.76-3.15-2.91V31h6.94c1.6,0,2.31.92,2.91,4.43h.72L319.65,29Z"/><path class="cls-2" d="M341.78,48.46c-1,3.43-1.83,4.51-4.62,4.51H331c-1.47,0-2.15-.36-2.15-2.19V42.28h6.74c1.63,0,2.39.32,2.71,3.15h.76V37.85h-.76c-.2,2.31-.88,3-2.31,3h-7.14V31h8.41c1.44,0,2.43.72,3,4.11h.72l-.32-5.54H321.48v.76h.88c2.67,0,3.19,1,3.19,3.19V50.37c0,2.39-.56,3.27-3.75,3.27h-1.12v.76h21.17l.64-5.94Z"/><path class="cls-2" d="M138.72,53h-6.14c-1.48,0-2.15-.36-2.15-2.19V42.28h6.74c1.63,0,2.39.32,2.71,3.15h.76V37.85h-.76c-.2,2.31-.88,3-2.31,3h-7.14V31h8.41c1.44,0,2.43.72,3,4.11h.72l-.32-5.54H123v.76h.88c2.67,0,3.19,1,3.19,3.19V50.37c0,2.39-.56,3.27-3.75,3.27h-.86A11.39,11.39,0,0,1,115,50.09l-3.15-3.15a47.84,47.84,0,0,0-4.54-4.15c3.27-1,5.3-3.47,5.3-6.46,0-4.07-3.31-7.1-10.69-7.1-2.59,0-3.39,0-5,.12s-4.07.24-5,.24v.76h.88c2.31,0,3,.72,3,3.19V50.33c0,2.67-.84,3.31-3.19,3.31h-.68v.76H103.2v-.76h-.92c-2.23,0-3.19-.6-3.19-3V43.91c.64,0,1.16.08,2,.08,1.08,0,1.71,0,2.71-.08a29.25,29.25,0,0,1,4.11,3.55l2.63,2.63c3.55,3.55,5.34,4.63,12.32,4.31h20.53l.64-5.94h-.72C142.35,51.89,141.51,53,138.72,53Zm-37.15-9.73a17.31,17.31,0,0,1-2.47-.08V30.08a16.26,16.26,0,0,1,2-.08c6.14,0,7.81,2.87,7.81,6.58C108.9,41.36,106,43.24,101.56,43.24Z"/></g></g></svg>