<svg xmlns="http://www.w3.org/2000/svg" viewBox="0 0 429.44 65.63"><defs><style>.cls-1{fill:#1d485f;}.cls-2{fill:#262424;}.cls-3{fill:#ccc;}</style></defs><title>Asset 1</title><g id="Layer_2" data-name="Layer 2"><g id="Layer_1-2" data-name="Layer 1"><path class="cls-1" d="M108.49,51.73l-2.76,7.47a13.22,13.22,0,0,0-1,3c0,1.29,1.24,1.77,3.86,1.77h.76v.9h-11V64c3.09,0,3.61-.57,5.14-4.71L112.2,35.6l-.43-1h4.14L125.86,61c1,2.52,2,3,4.34,3v.9H117.11V64h1.24c2.71,0,3.71-.29,3.71-1.62a5.33,5.33,0,0,0-.52-2l-3.19-8.66Zm4.86-13.18-4,11.09h8.23Z"/><path class="cls-1" d="M134,57.63a8.26,8.26,0,0,0,8,6.71c3.19,0,6.57-1.86,6.57-5.62,0-6.85-15.27-8.95-15.27-17.28,0-3.95,3.62-6.9,8.47-6.9,4,0,4.8,1.19,6.47,1.19a.92.92,0,0,0,.86-.47h.76l.81,6h-.81a8.42,8.42,0,0,0-7.66-5.61c-3.14,0-5.33,1.81-5.33,4.47,0,6.75,15.27,8.56,15.27,17.32,0,4.66-4.14,8.14-9.71,8.14-2.62,0-5.95-1.28-6.61-1.28a1.14,1.14,0,0,0-1,.52h-.81l-1-7.23Z"/><path class="cls-1" d="M158,57.63a8.25,8.25,0,0,0,8,6.71c3.19,0,6.57-1.86,6.57-5.62,0-6.85-15.28-8.95-15.28-17.28,0-3.95,3.62-6.9,8.47-6.9,4,0,4.8,1.19,6.47,1.19a.92.92,0,0,0,.86-.47h.76l.81,6h-.81a8.42,8.42,0,0,0-7.66-5.61c-3.14,0-5.33,1.81-5.33,4.47,0,6.75,15.27,8.56,15.27,17.32,0,4.66-4.14,8.14-9.71,8.14-2.61,0-5.95-1.28-6.61-1.28a1.15,1.15,0,0,0-1,.52h-.81l-1-7.23Z"/><path class="cls-1" d="M198.58,65.63c-9.33,0-17.17-6-17.17-14.89,0-9.48,7.28-16.18,17.42-16.18,9,0,16.7,6.14,16.7,14.7C215.53,58.86,207.82,65.63,198.58,65.63Zm-1-29.88c-8.37,0-11.7,7.8-11.7,13.51,0,8.9,6,15.18,13.7,15.18s11.47-6.85,11.47-13.61C211.06,42,205.44,35.74,197.59,35.74Z"/><path class="cls-1" d="M249.35,43.07a11.1,11.1,0,0,0-10.85-7.33c-7.94,0-12.89,5.76-12.89,13.75,0,8.62,6.19,14.94,13.42,14.94,3.75,0,8.37-1.28,11.61-7h.9a32.44,32.44,0,0,1-3,6.95c-3-.43-5.14,1.28-10.75,1.28-9.66,0-16.61-6.37-16.61-15.18,0-9.24,7.14-15.9,17.09-15.9,6,0,8.56,1.9,10,1.9.52,0,.76-.14.86-.28h.71l.43,6.9Z"/><path class="cls-1" d="M267.65,64.87H256.09V64c3-.14,3.57-.91,3.57-4.1V39.6c0-2.57-.91-3.28-3.57-3.43v-.9h11.56v.9c-3,0-4,.67-4,3.86V60.21c0,2.8.76,3.75,4,3.75Z"/><path class="cls-1" d="M280.69,51.73l-2.76,7.47a13.43,13.43,0,0,0-.95,3c0,1.29,1.24,1.77,3.86,1.77h.76v.9h-11V64c3.09,0,3.61-.57,5.13-4.71l8.66-23.65-.43-1h4.14L298.05,61c1,2.52,2,3,4.33,3v.9H289.3V64h1.23c2.71,0,3.71-.29,3.71-1.62a5.33,5.33,0,0,0-.52-2l-3.19-8.66Zm4.86-13.18-4,11.09h8.23Z"/><path class="cls-1" d="M321.31,60.49c0,2.57.86,3.48,3.76,3.48h1.77v.9h-15V64h1.76c2.9,0,3.76-.91,3.76-3.48V37h-8.28c-1.9,0-2.76,1.1-3.47,5.29h-.86l.76-7.71h.91a.71.71,0,0,0,.52.57,3.07,3.07,0,0,0,1,.15h22.88c.67,0,1.38-.15,1.48-.72h.89l.76,7.71h-.86c-.71-4.19-1.56-5.29-3.47-5.29h-8.28Z"/><path class="cls-1" d="M358.13,54.16h-.91c-.38-3.38-1.28-3.76-3.23-3.76h-8V60.54c0,2.19.81,2.62,2.57,2.62h7.32c3.33,0,4.33-1.29,5.51-5.38h.87l-.76,7.09H336.2V64h1.33c3.8,0,4.47-1,4.47-3.9V40c0-2.66-.62-3.8-3.8-3.8h-1.05v-.9H360l.38,6.61h-.86c-.61-4-1.8-4.9-3.51-4.9h-10V48.69h8.52c1.71,0,2.52-.81,2.76-3.58h.91Z"/><path class="cls-1" d="M367.92,57.63a8.25,8.25,0,0,0,8,6.71c3.19,0,6.56-1.86,6.56-5.62,0-6.85-15.27-8.95-15.27-17.28,0-3.95,3.62-6.9,8.47-6.9,4,0,4.8,1.19,6.47,1.19a.92.92,0,0,0,.86-.47h.76l.8,6h-.8a8.42,8.42,0,0,0-7.66-5.61c-3.14,0-5.33,1.81-5.33,4.47,0,6.75,15.27,8.56,15.27,17.32,0,4.66-4.14,8.14-9.71,8.14-2.62,0-5.95-1.28-6.62-1.28a1.14,1.14,0,0,0-1,.52H368l-1-7.23Z"/><path class="cls-2" d="M128.62,30.79l-6.23-14.7-6,14.7h-2.33l-9.9-25.32c-1.43-3.61-2.57-4.14-5.61-4.14h-.29V.43h12.33v.91h-.81c-2.23,0-3.09,1-2.28,3l8.66,21.8,5.14-12.7L117.44,4c-.95-2.33-2.37-2.71-4.9-2.71V.43H132v.91c-2.95,0-3.95.71-4.71,2.52l-3,7.43,6.23,14.84L138.94,4c.77-1.95.15-2.62-3.32-2.71V.43h9.85v.91c-2.9,0-3.57.57-5,4.33l-9.56,25.12ZM125.34,3.38c.52-1.28.19-2-1.19-2h-2c-1.24,0-1.9.48-1.33,1.76l2.38,5.52Z"/><path class="cls-2" d="M159.49,30H147.93v-.91c3-.14,3.57-.9,3.57-4.09V4.76c0-2.57-.9-3.29-3.57-3.43V.43h11.56v.91c-3,0-4,.67-4,3.85V25.36c0,2.8.77,3.75,4,3.75Z"/><path class="cls-2" d="M183.7,19.32h-.9c-.38-3.38-1.28-3.76-3.24-3.76h-8V25.69c0,2.19.81,2.62,2.57,2.62h7.33c3.33,0,4.34-1.28,5.52-5.38h.86L187,30H161.77v-.91h1.33c3.81,0,4.47-1,4.47-3.9V5.14c0-2.66-.62-3.81-3.81-3.81h-1V.43h22.84L185.94,7h-.85c-.62-4-1.81-4.9-3.52-4.9h-10V13.85H180c1.71,0,2.52-.81,2.76-3.57h.9Z"/><path class="cls-2" d="M195.16,5.19c0-3.09-.81-3.85-3.62-3.85h-1V.43c1.76-.1,4.09-.19,6.71-.28s5.52-.15,8-.15c12.56,0,18.13,6.38,18.13,14.23,0,7.18-5.56,15.79-17.6,15.79H190.59v-.91h.81c2.57,0,3.76-.7,3.76-3.47Zm3.95,21.32c0,1.95.15,2.61,3.9,2.61,6.38,0,9-.9,12-3.85A14.68,14.68,0,0,0,218.95,15a14.31,14.31,0,0,0-3.81-10.23C213,2.57,209.58.9,202.91.9c-1.95,0-3.23.15-3.81.19Z"/><path class="cls-2" d="M248.11,19.32h-.9c-.38-3.38-1.29-3.76-3.24-3.76h-8V25.69c0,2.19.8,2.62,2.57,2.62h7.33c3.33,0,4.33-1.28,5.52-5.38h.86L251.44,30H226.17v-.91h1.33c3.81,0,4.47-1,4.47-3.9V5.14c0-2.66-.62-3.81-3.81-3.81h-1V.43H250L250.34,7h-.85c-.61-4-1.81-4.9-3.52-4.9h-10V13.85h8.51c1.71,0,2.53-.81,2.76-3.57h.9Z"/><path class="cls-2" d="M263.75,25.55c0,2.86,1.14,3.57,3.8,3.57h1.1V30H255.19v-.91H256c2.8,0,3.8-.75,3.8-3.94v-20c0-3-.81-3.81-3.57-3.81h-1V.43c1.14,0,4-.19,6-.28s2.9-.15,6-.15c8.8,0,12.75,3.61,12.75,8.47,0,3.57-2.43,6.57-6.33,7.72A56.41,56.41,0,0,1,279,21.13l3.76,3.76c2.8,2.8,5.71,4.57,9.37,4.81v.86c-8.32.37-10.46-1.44-14.7-5.67l-3.14-3.14a34.76,34.76,0,0,0-4.9-4.24c-1.19,0-1.95.1-3.23.1-1,0-1.67,0-2.43-.1Zm0-8.94a20.29,20.29,0,0,0,3,.09c5.28,0,8.75-2.23,8.75-7.95,0-4.43-2-7.85-9.33-7.85a18.12,18.12,0,0,0-2.38.1Z"/><path class="cls-2" d="M311.75,30v-.91c2.18,0,3.1-.42,3.1-1.33s-1.05-2.42-5.85-7.23c-3.81-3.8-5-4.52-7-4.28v8.9c0,3,.86,3.94,3.81,3.94h.61V30h-13v-.91h.85c3,0,3.8-1,3.8-3.47V4.76c0-2.86-1.28-3.43-3.8-3.43h-.85V.43h12.85v.91h-.43c-2.86,0-3.81.9-3.81,3.75V15.38c1.86-.2,3.33-1.05,5.33-3.05,3.71-3.71,6.61-8,6.61-9.52,0-1.09-.71-1.47-3.28-1.47V.43h12.51v.91c-3.38,0-4.85.52-6.28,2s-4.48,7.42-9.47,11.23c.86.15,1.71.86,3.81,2.95,5,5,7.66,8.71,9.23,10.28.81.8,2.05,1.37,5.28,1.37V30Z"/><path class="cls-2" d="M347.71,19.32h-.9c-.38-3.38-1.29-3.76-3.24-3.76h-8V25.69c0,2.19.81,2.62,2.57,2.62h7.33c3.33,0,4.32-1.28,5.51-5.38h.86L351,30H325.78v-.91h1.33c3.8,0,4.47-1,4.47-3.9V5.14c0-2.66-.62-3.81-3.81-3.81h-1V.43h22.84L350,7h-.85c-.62-4-1.81-4.9-3.53-4.9h-10V13.85H344c1.71,0,2.52-.81,2.76-3.57h.9Z"/><path class="cls-2" d="M363.31,15.89v9c0,3.09.61,4.18,3.81,4.18h.13V30H355.32v-.91h.28c2.81,0,3.76-.75,3.76-3.47V4.71c0-2.48-.81-3.19-3.42-3.38V.43h11.32v.91c-3.38,0-3.94.9-3.94,4.57v8.28H382V4.81c0-2.52-.81-3.47-3.76-3.47h-.9V.43h12.23v.91c-2.86.1-3.62,1-3.62,3.9V25c0,3.38,1,4.14,3.81,4.14h.48V30H376.73v-.91h1.48c3.09,0,3.76-1.09,3.76-3.57V15.89Z"/><path class="cls-2" d="M401,25.55c0,2.86,1.14,3.57,3.81,3.57h1.1V30H392.46v-.91h.81c2.8,0,3.81-.75,3.81-3.94v-20c0-3-.82-3.81-3.58-3.81h-1V.43c1.14,0,4-.19,6-.28s2.91-.15,6-.15c8.8,0,12.75,3.61,12.75,8.47,0,3.57-2.42,6.57-6.33,7.72a56.43,56.43,0,0,1,5.42,4.94l3.76,3.76c2.81,2.8,5.71,4.57,9.38,4.81v.86c-8.33.37-10.47-1.44-14.71-5.67l-3.14-3.14a34.92,34.92,0,0,0-4.9-4.24c-1.19,0-2,.1-3.24.1-1,0-1.67,0-2.43-.1Zm0-8.94a20.18,20.18,0,0,0,2.95.09c5.29,0,8.75-2.23,8.75-7.95,0-4.43-2-7.85-9.32-7.85A18.16,18.16,0,0,0,401,1Z"/><path class="cls-2" d="M87.38,65H86l-7.08-5.67a17.31,17.31,0,0,1-1.32-1.15V64.4h-1.3V56.47h1.3l7.68,6.21.78.67V56.29h1.3Z"/><path class="cls-2" d="M76.33,45.91V44.44h6.39a7.61,7.61,0,0,1,2.65.38A3.27,3.27,0,0,1,87,46.18a4.86,4.86,0,0,1,.61,2.59A5.3,5.3,0,0,1,87,51.31a3.07,3.07,0,0,1-1.55,1.42,7.33,7.33,0,0,1-2.77.42H76.33V51.68h6.38a6.18,6.18,0,0,0,2.12-.26,2.07,2.07,0,0,0,1.06-.92,3.26,3.26,0,0,0,.37-1.6,3,3,0,0,0-.73-2.3,4.16,4.16,0,0,0-2.81-.69Z"/><path class="cls-2" d="M87.38,40.44H76.33v-4.9a6.44,6.44,0,0,1,.3-2.24,2.41,2.41,0,0,1,1.05-1.24,3.14,3.14,0,0,1,1.67-.46,2.79,2.79,0,0,1,2,.76,3.88,3.88,0,0,1,1,2.36,3.92,3.92,0,0,1,.55-.88,7.82,7.82,0,0,1,1.47-1.21l3-1.92v1.84L85.08,34c-.67.43-1.17.78-1.53,1.06a3.52,3.52,0,0,0-.74.74,2.37,2.37,0,0,0-.29.68,4.73,4.73,0,0,0-.05.81V39h4.91ZM81.2,39V35.83A4.76,4.76,0,0,0,81,34.26a1.67,1.67,0,0,0-.66-.86,1.78,1.78,0,0,0-1-.29,1.66,1.66,0,0,0-1.29.56,2.68,2.68,0,0,0-.51,1.81V39Z"/><path class="cls-2" d="M87.38,27.51H76.33V26H87.38Z"/><path class="cls-2" d="M83.51,14l.37-1.46a4.94,4.94,0,0,1,2.75,1.66,4.56,4.56,0,0,1,.95,2.93,5.26,5.26,0,0,1-.73,2.9,4.6,4.6,0,0,1-2.12,1.71,7.54,7.54,0,0,1-3,.59,6.52,6.52,0,0,1-3-.66A4.54,4.54,0,0,1,76.8,19.8a5.48,5.48,0,0,1-.67-2.69A4.57,4.57,0,0,1,77,14.32a4.47,4.47,0,0,1,2.38-1.58l.34,1.45a3.39,3.39,0,0,0-1.76,1.11,3,3,0,0,0-.55,1.85A3.62,3.62,0,0,0,78,19.28a3.28,3.28,0,0,0,1.64,1.21,7.13,7.13,0,0,0,4.59-.07,3.07,3.07,0,0,0,1.57-1.27,3.63,3.63,0,0,0,.52-1.88,3.14,3.14,0,0,0-.71-2.08A3.67,3.67,0,0,0,83.51,14Z"/><path class="cls-2" d="M87.38,9.16H76.33V7.7h4.54V2H76.33V.48H87.38V2H82.17V7.7h5.22Z"/><path class="cls-1" d="M46.56,27.9v1l.88,0v-1Z"/><path class="cls-1" d="M37.84,40.4l3.46-6.92c1.1-2.22,1.78-3.37,2.76-4-1.64.32-2.26,1.27-3.69,4.18L37,40.5l6.91,14.23.38-.92L37.79,40.5Z"/><path class="cls-1" d="M33.9,32.51A6.17,6.17,0,0,1,33.07,30a1,1,0,0,1,.2-.63c-1,.08-1.08.3-1.08.63A6,6,0,0,0,33,32.31L35.26,37l.42-.86Z"/><path class="cls-1" d="M33.72,47.48,27.25,61l.77.12,6.11-12.77Z"/><path class="cls-1" d="M16.79,30.87a1.56,1.56,0,0,1,.56-1.37c-1.2.19-1.44.59-1.44,1.37a17.15,17.15,0,0,0,1.73,4.85l9.06,19.2.42-.87L18.57,35.91C18.27,35.3,16.79,32.17,16.79,30.87Z"/><path class="cls-2" d="M32.54.72A32.08,32.08,0,1,0,64.61,32.81,32.12,32.12,0,0,0,32.54.72Zm-10,59.43A29.28,29.28,0,0,1,3.39,32.81a28.49,28.49,0,0,1,.27-3.72l0-.21h.21l.93,0H5a8.6,8.6,0,0,1,1.86.26,4.25,4.25,0,0,1,.87.35c1.11.61,1.84,1.78,2.85,4L23.05,60.34Zm17.77.73A29.49,29.49,0,0,1,32.54,62a28.33,28.33,0,0,1-4.25-.32l-.24,0-1.16-.2h0l-.29-.05,7.14-15,.67,1.41.13.27.13.27,5.91,12.46ZM32.55,32.51A6.13,6.13,0,0,1,31.73,30c0-1,.83-1.14,2.58-1.14h2a5.16,5.16,0,0,1,1.9.24,1.13,1.13,0,0,1,.38.27,1,1,0,0,1,.25.68A4.76,4.76,0,0,1,38.19,32l-2,4.15-.13.27-.13.27-.67,1.39Zm28.86-3.56,0,.15s0,.05,0,.08,0,.15,0,.23a28.18,28.18,0,0,1,.23,3.41A29,29,0,0,1,47.24,57.95l-.33.18-.32.17c-.39.22-.77.44-1.17.63l-.56.27L55.12,34.71c2.16-5.17,3.14-5.76,6.08-5.82h.21Zm-.2-1.32v0l0,.23h-11v1l.89,0,.23,0a6.48,6.48,0,0,1,1.46.24,2.45,2.45,0,0,1,.72.33,1.4,1.4,0,0,1,.59,1.22,7.26,7.26,0,0,1-.81,2.69L44.76,53.79l-.12.28-.12.29-.62,1.49L36.44,40.5l.05-.11L40,33.47c2-4,2.6-4.53,6.15-4.6v-1H21.6v1h1.12a5.67,5.67,0,0,1,1.54.24,2.92,2.92,0,0,1,.67.31c.91.58,1.58,1.74,2.66,4l4.95,10.43,0,.1L27.64,54l-.13.27-.13.27L26.69,56,17.22,35.91c-.3-.61-1.78-3.74-1.78-5,0-1.52.91-1.87,3.46-2v-1H3.82l0-.27a29.12,29.12,0,0,1,57.29-.18Z"/><path class="cls-1" d="M19.37,27.9v1l.88-.06v-1Z"/><path class="cls-1" d="M59.77,29.46c-1.6.27-2.5,1.29-4.23,5.43L45.78,58.22c.38-.2.74-.42,1.11-.63l9.58-22.88C57.78,31.55,58.67,30.12,59.77,29.46Z"/><path class="cls-3" d="M34.52,48.08l-.13-.27-.67-1.41-7.14,15,.29.05h0l1.16.2.24,0a28.33,28.33,0,0,0,4.25.32,29.49,29.49,0,0,0,7.75-1.08l.27-.08L34.65,48.35Zm-6.5,13L27.25,61l6.46-13.52.41.87Zm.48.08,5.88-12.31L39.9,60.5A28.15,28.15,0,0,1,28.51,61.2Z"/><path class="cls-3" d="M55.12,34.71,44.87,59.2l.56-.27c.4-.2.78-.42,1.17-.63l.32-.17.33-.18A29,29,0,0,0,61.7,32.81a28.18,28.18,0,0,0-.23-3.41c0-.08,0-.15,0-.23s0-.05,0-.08l0-.15v-.06H61.2C58.26,29,57.28,29.54,55.12,34.71ZM46.89,57.59c-.37.21-.73.43-1.11.63l9.76-23.33c1.73-4.14,2.62-5.16,4.23-5.43-1.1.66-2,2.09-3.3,5.25Zm.66-.38,9.34-22.33c1.7-4.07,2.61-5.12,4.12-5.42A28.34,28.34,0,0,1,47.55,57.22Z"/><path class="cls-3" d="M7.77,29.51a4.25,4.25,0,0,0-.87-.35A8.6,8.6,0,0,0,5,28.91H4.81l-.93,0H3.68l0,.21a28.49,28.49,0,0,0-.27,3.72A29.28,29.28,0,0,0,22.52,60.15l.53.19L10.62,33.48C9.61,31.29,8.88,30.12,7.77,29.51ZM3.85,32.81a27.53,27.53,0,0,1,.23-3.46c3.66,0,4.37.57,6.1,4.33l12,25.83A28.79,28.79,0,0,1,3.85,32.81Z"/><path class="cls-3" d="M35.93,36.66l.13-.27.13-.27,2-4.15a4.76,4.76,0,0,0,.61-1.92,1,1,0,0,0-.25-.68,1.13,1.13,0,0,0-.38-.27,5.16,5.16,0,0,0-1.9-.24h-2c-1.75,0-2.58.17-2.58,1.14a6.13,6.13,0,0,0,.83,2.49l2.71,5.55Zm-.28-7.32h.62c1.9,0,2.05.32,2.05.72a4.13,4.13,0,0,1-.56,1.71L35.93,35.6l-1.61-3.29A5.93,5.93,0,0,1,33.54,30C33.54,29.59,33.69,29.34,35.65,29.34Zm-2.68,3A6,6,0,0,1,32.2,30c0-.33.1-.55,1.08-.63a1,1,0,0,0-.2.63,6.17,6.17,0,0,0,.83,2.49l1.77,3.62-.42.86Z"/><path class="cls-3" d="M32.54.25A32.54,32.54,0,1,0,65.08,32.81,32.59,32.59,0,0,0,32.54.25Zm0,64.63A32.08,32.08,0,1,1,64.61,32.81,32.12,32.12,0,0,1,32.54,64.88Z"/><path class="cls-3" d="M32.54,3.64a29.13,29.13,0,0,0-28.67,24l0,.27H18.9v1c-2.55.12-3.46.46-3.46,2,0,1.3,1.48,4.44,1.78,5L26.69,56l.68-1.41.13-.27.13-.27,4.86-10,0-.1L27.6,33.48c-1.08-2.31-1.75-3.46-2.66-4a2.92,2.92,0,0,0-.67-.31,5.67,5.67,0,0,0-1.54-.24H21.6v-1H46.1v1c-3.55.07-4.16.58-6.15,4.6L36.49,40.4l-.05.11L43.9,55.86l.62-1.49.12-.29.12-.28L53.31,33.4a7.26,7.26,0,0,0,.81-2.69,1.4,1.4,0,0,0-.59-1.22,2.45,2.45,0,0,0-.72-.33,6.48,6.48,0,0,0-1.46-.24l-.23,0-.89,0v-1h11l0-.23v0l0-.18A29.12,29.12,0,0,0,32.54,3.64ZM26.7,54.92l-9.06-19.2a17.15,17.15,0,0,1-1.73-4.85c0-.78.25-1.17,1.44-1.37a1.56,1.56,0,0,0-.56,1.37c0,1.3,1.48,4.44,1.78,5L27.12,54Zm17.18-.18L37,40.5l3.41-6.82c1.43-2.91,2.06-3.86,3.69-4.18-1,.6-1.67,1.74-2.76,4L37.84,40.4l-.05.11,6.47,13.31Zm7.25-27.29H49.77v1.9H50c3.05,0,3.65.5,3.65,1.37a7.76,7.76,0,0,1-.78,2.51l-8.38,20L38.31,40.5l3.41-6.82c2-4,2.4-4.29,6-4.34h.23v-1.9H21.14v1.9h.23c3.38,0,3.82.1,5.8,4.34L32,43.91,27.38,53.5,19,35.71a17,17,0,0,1-1.73-4.85c0-1.08.44-1.41,3.24-1.52l.22,0V27.44H4.38a28.66,28.66,0,0,1,56.33,0Zm-4.56,1.47v-1h.88v1Zm-27.2,0v-1h.88v1Z"/></g></g></svg>