<svg xmlns="http://www.w3.org/2000/svg" viewBox="0 0 90 58"><defs><style>.cls-1{fill:#8c1727;}</style></defs><title>Asset 1</title><g id="Layer_2" data-name="Layer 2"><g id="Capa_1" data-name="Capa 1"><path class="cls-1" d="M3,5.43l37.5,20.14a10.75,10.75,0,0,0,9.06,0L87,5.43C89.47,4.12,91.78,0,87.3,0H2.7C-1.78,0,.53,4.12,3,5.43Zm85.09,10L49.53,35.57a8.55,8.55,0,0,1-4.53,1,8.55,8.55,0,0,1-4.53-1L1.94,15.43c-2-1-1.94.18-1.94,1.1V53.21C0,55.3,2.79,58,5,58H85c2.17,0,5-2.7,5-4.79V16.53C90,15.6,90,14.41,88.06,15.43Z"/></g></g></svg>