<svg xmlns="http://www.w3.org/2000/svg" viewBox="0 0 330 360"><defs><style>.cls-1{fill:#8c1727;}</style></defs><title>Asset 1</title><g id="Layer_2" data-name="Layer 2"><g id="Capa_1" data-name="Capa 1"><g id="_Group_" data-name="&lt;Group&gt;"><path id="_Compound_Path_" data-name="&lt;Compound Path&gt;" class="cls-1" d="M330,124.55H280V77.83L197,0H0V360H280V307.28h50ZM300,277.28H90V154.55H300Z"/><path id="_Compound_Path_2" data-name="&lt;Compound Path&gt;" class="cls-1" d="M124.93,221.71h15.79a19,19,0,0,0,8.46-1.88,20.79,20.79,0,0,0,6.58-5,22.86,22.86,0,0,0,4.23-7.1,23.2,23.2,0,0,0,1.5-8.23,21.49,21.49,0,0,0-1.6-8,24,24,0,0,0-4.42-7.14,22,22,0,0,0-6.72-5.08,19,19,0,0,0-8.51-1.93H112v66.74h13V221.71Zm0-33H139.4a8.41,8.41,0,0,1,3.34.71,7.85,7.85,0,0,1,2.87,2.12,11.13,11.13,0,0,1,2,3.43,13,13,0,0,1,.75,4.56,12,12,0,0,1-2.4,7.9,7.43,7.43,0,0,1-6,2.91h-15V188.72Z"/><path id="_Compound_Path_3" data-name="&lt;Compound Path&gt;" class="cls-1" d="M208.35,241.69a29.84,29.84,0,0,0,10.39-6.77,29.41,29.41,0,0,0,6.63-10.53,39.07,39.07,0,0,0,2.3-13.77,39.84,39.84,0,0,0-2.07-12.93A28.82,28.82,0,0,0,209.1,180a36.25,36.25,0,0,0-14.34-2.63H170.52v66.74h24.25A36.67,36.67,0,0,0,208.35,241.69Zm-24.86-53h11.28a21.1,21.1,0,0,1,8.41,1.6,17.17,17.17,0,0,1,6.25,4.51,19.8,19.8,0,0,1,3.85,7,28.41,28.41,0,0,1,1.32,8.84,28.09,28.09,0,0,1-1.32,8.74,20.71,20.71,0,0,1-3.81,7,17.42,17.42,0,0,1-6.2,4.65,20.32,20.32,0,0,1-8.51,1.69H183.49Z"/><polygon id="_Path_" data-name="&lt;Path&gt;" class="cls-1" points="250.79 216.45 277.3 216.45 277.3 205.92 250.79 205.92 250.79 188.72 282.66 188.72 282.66 177.34 237.82 177.34 237.82 244.09 250.79 244.09 250.79 216.45"/></g></g></g></svg>