<svg xmlns="http://www.w3.org/2000/svg" viewBox="0 0 455 455"><defs><style>.cls-1{fill:#757575;}</style></defs><title>Asset 2</title><g id="Layer_2" data-name="Layer 2"><g id="Layer_1-2" data-name="Layer 1"><path class="cls-1" d="M0,0V455H455V0ZM352.75,163.26q.18,4.16.19,8.36c0,85.4-65,183.88-183.87,183.88a182.89,182.89,0,0,1-99.07-29,130.43,130.43,0,0,0,95.68-26.76,64.69,64.69,0,0,1-60.37-44.88,64.68,64.68,0,0,0,29.19-1.11,64.67,64.67,0,0,1-51.84-63.37c0-.27,0-.54,0-.81a64.37,64.37,0,0,0,29.27,8.08,64.7,64.7,0,0,1-20-86.28,183.48,183.48,0,0,0,133.2,67.53,64.67,64.67,0,0,1,110.12-58.95,129.35,129.35,0,0,0,41-15.68A64.81,64.81,0,0,1,347.88,140,129.23,129.23,0,0,0,385,129.81,131.23,131.23,0,0,1,352.75,163.26Z"/></g></g></svg>