<svg xmlns="http://www.w3.org/2000/svg" viewBox="0 0 490 489.2"><defs><style>.cls-1{fill:#8c1727;}</style></defs><title>Asset 1</title><g id="Layer_2" data-name="Layer 2"><g id="Capa_1" data-name="Capa 1"><path class="cls-1" d="M490,0H0V489.2H489.2ZM300.6,47.8h42.5V90.3H300.6Zm-77.2,0h42.5V90.3H223.4V47.8Zm-77.3,0h42.5V90.3H146.1ZM111.3,441.6H68.8V399.1h42.5Zm0-351.3H68.8V47.8h42.5Zm77.3,351.3H146.1V399.1h42.5Zm77.2,0H223.3V399.1h42.5Zm77.3,0H300.6V399.1h42.5Zm9.4-184.9L189.4,350.9a13.88,13.88,0,0,1-20.8-12V150.5a13.88,13.88,0,0,1,20.8-12l163.1,94.2A13.81,13.81,0,0,1,352.5,256.7Zm67.9,184.9H377.9V399.1h42.5Zm0-351.3H377.9V47.8h42.5Z"/></g></g></svg>